<svg width="590" height="655" viewBox="0 0 590 655" fill="none" xmlns="http://www.w3.org/2000/svg">
<path d="M262.609 531.599V636.997C433.603 636.997 572.214 498.386 572.214 327.391C572.214 156.397 433.603 17.7858 262.609 17.7858V123.183C149.833 123.183 58.4006 214.616 58.4006 327.391C58.4006 440.167 149.833 531.599 262.609 531.599Z" fill="#EEAA2B"/>
<path d="M262.608 0C350.062 0 432.272 34.0566 494.114 95.8855C555.956 157.728 590 239.938 590 327.391C590 414.845 555.943 497.055 494.114 558.897C432.272 620.726 350.062 654.783 262.608 654.783V652.148C441.679 652.148 587.365 506.462 587.365 327.391C587.365 148.321 441.679 2.63494 262.608 2.63494V0Z" fill="#DB6300"/>
</svg>
