<svg width="148" height="129" viewBox="0 0 148 129" fill="none" xmlns="http://www.w3.org/2000/svg">
<g opacity="0.5">
<path d="M18.1056 46.3532C17.6881 46.4074 17.3979 46.7941 17.4504 47.2121C17.5029 47.6301 17.8879 47.9193 18.3054 47.8651L19.6824 47.6877L18.432 50.6919C7.8563 52.1105 0.617915 54.3028 0.965499 56.9665C1.31308 59.6302 8.85266 59.8795 19.4289 58.5187L21.3945 61.1044L20.0175 61.2819C19.5999 61.336 19.3098 61.7227 19.3623 62.1407C19.4148 62.5588 19.7997 62.848 20.2173 62.7938L22.4737 62.4985L32.6658 75.8945L33.7053 75.7658L28.3939 56.9909C37.0365 55.1955 45.2204 52.8133 45.2204 52.8133L51.3269 58.0779L52.2641 57.9594L49.7499 52.08C49.7499 52.08 51.9832 51.6737 51.8071 50.3307C51.631 48.9878 49.3735 49.1672 49.3735 49.1672L50.3327 42.8261L49.3955 42.9446L44.8059 49.6071C44.8059 49.6071 36.293 49.4144 27.4836 49.9113L27.9244 30.3747L26.8849 30.5034L20.3801 46.0889L18.1056 46.3532Z" fill="#EEAA2B"/>
<path d="M58.1751 49.2983C58.1751 49.2983 58.5307 49.2806 59.2284 49.2363C59.9174 49.2054 60.9084 49.1218 62.1754 49.0838C63.4517 49.0902 65.0077 49.0487 66.7867 49.0755C68.5615 49.1381 70.5671 49.1399 72.7475 49.3133C74.9275 49.4287 77.2906 49.6443 79.7833 49.9252C82.276 50.206 84.8935 50.5298 87.5967 50.9862C90.2865 51.4338 93.083 51.8934 95.8899 52.5133C98.7051 53.0618 101.535 53.7928 104.365 54.4658C107.173 55.2594 109.998 55.9681 112.723 56.8607C115.487 57.6638 118.132 58.6197 120.711 59.5319C123.302 60.395 125.717 61.4696 128.05 62.376C130.366 63.3093 132.496 64.3518 134.492 65.249C136.47 66.1732 138.234 67.1312 139.807 67.9446C141.397 68.731 142.724 69.5385 143.828 70.1617C146.023 71.4573 147.256 72.2036 147.256 72.2036C147.256 72.2036 145.913 71.6547 143.587 70.619C142.427 70.1123 141.038 69.457 139.387 68.8228C137.754 68.1616 135.898 67.4319 133.899 66.6283C131.856 65.892 129.683 65.0326 127.341 64.1976C124.986 63.4118 122.546 62.4934 119.947 61.7017C118.667 61.29 117.351 60.8743 116.023 60.4498C114.69 60.0611 113.343 59.6636 111.983 59.2573C109.268 58.4091 106.474 57.7401 103.684 56.9775C100.876 56.2997 98.1082 55.5324 95.3241 54.9656C93.9384 54.6577 92.5662 54.3585 91.2028 54.0459C89.8352 53.7689 88.481 53.5006 87.1625 53.2364C84.5078 52.7349 81.9378 52.2502 79.4886 51.8441C77.0439 51.4602 74.7149 51.0749 72.569 50.7898C70.4273 50.469 68.4379 50.2665 66.6971 50.0343C64.9389 49.829 63.4082 49.7144 62.153 49.5874C59.6345 49.4049 58.1751 49.2983 58.1751 49.2983Z" fill="#EBEBEB"/>
</g>
</svg>
