<svg width="70" height="71" viewBox="0 0 70 71" fill="none" xmlns="http://www.w3.org/2000/svg">
<path d="M53.0645 58.9121C51.197 58.9121 49.6774 60.4318 49.6774 62.2992C49.6774 64.1666 51.197 65.6863 53.0645 65.6863C54.9319 65.6863 56.4516 64.1666 56.4516 62.2992C56.4516 60.4318 54.9319 58.9121 53.0645 58.9121ZM53.0645 63.4282C52.4424 63.4282 51.9354 62.9224 51.9354 62.2992C51.9354 61.676 52.4424 61.1702 53.0645 61.1702C53.6866 61.1702 54.1935 61.676 54.1935 62.2992C54.1935 62.9224 53.6866 63.4282 53.0645 63.4282Z" fill="#219653"/>
<path d="M14.6774 58.9121C12.81 58.9121 11.2903 60.4318 11.2903 62.2992C11.2903 64.1666 12.81 65.6863 14.6774 65.6863C16.5448 65.6863 18.0645 64.1666 18.0645 62.2992C18.0645 60.4318 16.5448 58.9121 14.6774 58.9121ZM14.6774 63.4282C14.0553 63.4282 13.5483 62.9224 13.5483 62.2992C13.5483 61.676 14.0553 61.1702 14.6774 61.1702C15.2995 61.1702 15.8064 61.676 15.8064 62.2992C15.8064 62.9224 15.2995 63.4282 14.6774 63.4282Z" fill="#219653"/>
<path d="M23.7097 52.1378H25.9678V54.3959H23.7097V52.1378Z" fill="#219653"/>
<path d="M25.9678 49.8798H28.2258V52.1378H25.9678V49.8798Z" fill="#219653"/>
<path d="M28.2258 52.1378H30.4839V54.3959H28.2258V52.1378Z" fill="#219653"/>
<path d="M30.4839 49.8798H32.742V52.1378H30.4839V49.8798Z" fill="#219653"/>
<path d="M32.7419 52.1378H35V54.3959H32.7419V52.1378Z" fill="#219653"/>
<path d="M35 49.8798H37.2581V52.1378H35V49.8798Z" fill="#219653"/>
<path d="M37.2581 52.1378H39.5161V54.3959H37.2581V52.1378Z" fill="#219653"/>
<path d="M39.5161 49.8798H41.7742V52.1378H39.5161V49.8798Z" fill="#219653"/>
<path d="M41.7742 52.1378H44.0322V54.3959H41.7742V52.1378Z" fill="#219653"/>
<path d="M36.129 10.3637H38.3871V17.1378H40.6452V10.3637H42.9032V8.10559H36.129V10.3637Z" fill="#219653"/>
<path d="M48.5484 8.10559C46.6809 8.10559 45.1613 9.62527 45.1613 11.4927V17.1378H47.4193V14.8798H49.6774V17.1378H51.9354V11.4927C51.9354 9.62527 50.4158 8.10559 48.5484 8.10559ZM47.4193 12.6217V11.4927C47.4193 10.8695 47.9263 10.3637 48.5484 10.3637C49.1704 10.3637 49.6774 10.8695 49.6774 11.4927V12.6217H47.4193Z" fill="#219653"/>
<path d="M58.7097 8.10559C58.7097 9.1714 58.292 10.2056 57.5807 10.9948C56.8694 10.2056 56.4517 9.1714 56.4517 8.10559H54.1936C54.1936 9.77656 54.8518 11.408 55.9978 12.6217C54.8518 13.8354 54.1936 15.4669 54.1936 17.1378H56.4517C56.4517 16.072 56.8694 15.0378 57.5807 14.2487C58.292 15.0378 58.7097 16.072 58.7097 17.1378H60.9678C60.9678 15.4669 60.3096 13.8354 59.1636 12.6217C60.3096 11.408 60.9678 9.77656 60.9678 8.10559H58.7097Z" fill="#219653"/>
<path d="M63.2258 8.10559H65.4839V17.1378H63.2258V8.10559Z" fill="#219653"/>
<path d="M55.3226 29.5572C55.9458 29.5572 56.4516 29.0526 56.4516 28.4282V25.0411H68.871C69.4942 25.0411 70 24.5364 70 23.9121V1.33142C70 0.70707 69.4942 0.202393 68.871 0.202393H32.7419C32.1187 0.202393 31.6129 0.70707 31.6129 1.33142V23.9121C31.6129 24.5364 32.1187 25.0411 32.7419 25.0411H45.1613V28.4282C45.1613 29.0526 45.6671 29.5572 46.2903 29.5572H47.4194V35.5761L47.2365 35.4079C45.3792 33.694 43.1087 32.5548 40.6711 32.075V28.4282C40.6711 27.8038 40.1653 27.2992 39.5421 27.2992H21.4516C20.8284 27.2992 20.3226 27.8038 20.3226 28.4282V32.215C17.0777 33.0166 14.21 34.9969 12.3087 37.8488L7.29919 45.3637H5.64516C2.53242 45.3637 0 47.8961 0 51.0088V60.0411C0 61.9085 1.51968 63.4282 3.3871 63.4282H6.86452C7.41548 67.2511 10.7044 70.2024 14.6774 70.2024C18.6505 70.2024 21.9394 67.2511 22.4903 63.4282H45.2516C45.8026 67.2511 49.0914 70.2024 53.0645 70.2024C57.0376 70.2024 60.3265 67.2511 60.8774 63.4282H66.6129C68.4803 63.4282 70 61.9085 70 60.0411V51.0088C70 47.8961 67.4676 45.3637 64.3548 45.3637H58.0221L54.1936 41.8298V29.5572H55.3226ZM33.871 2.46046H67.7419V22.783H33.871V2.46046ZM54.1936 25.0411V27.2992H47.4194V25.0411H54.1936ZM22.5806 29.5572H38.4131V31.8322C38.2911 31.8288 38.1703 31.8153 38.0473 31.8153H23.5821C23.2445 31.8153 22.9137 31.8526 22.5806 31.8774V29.5572ZM28.2518 45.3637V34.0734H30.5098V45.3637H28.2518ZM14.1874 39.1009C16.2863 35.9532 19.7987 34.0734 23.5821 34.0734H25.9937V45.3637H10.0123L14.1874 39.1009ZM4.51613 47.8295V51.0088C4.51613 52.4788 3.56887 53.7208 2.25806 54.1882V51.0088C2.25806 49.5388 3.20532 48.2969 4.51613 47.8295ZM14.6774 67.9443C11.5647 67.9443 9.03226 65.4119 9.03226 62.2992C9.03226 59.1864 11.5647 56.654 14.6774 56.654C17.7902 56.654 20.3226 59.1864 20.3226 62.2992C20.3226 65.4119 17.7902 67.9443 14.6774 67.9443ZM53.0645 67.9443C49.9518 67.9443 47.4194 65.4119 47.4194 62.2992C47.4194 59.1864 49.9518 56.654 53.0645 56.654C56.1773 56.654 58.7097 59.1864 58.7097 62.2992C58.7097 65.4119 56.1773 67.9443 53.0645 67.9443ZM66.6129 61.1701H60.8774C60.3265 57.3472 57.0376 54.3959 53.0645 54.3959C49.0914 54.3959 45.8026 57.3472 45.2516 61.1701H22.4903C21.9394 57.3472 18.6505 54.3959 14.6774 54.3959C10.7044 54.3959 7.41548 57.3472 6.86452 61.1701H3.3871C2.765 61.1701 2.25806 60.6643 2.25806 60.0411V56.54C4.83113 56.015 6.77419 53.7343 6.77419 51.0088V47.6217H60.9677V49.8798C60.9677 52.3705 62.9932 54.3959 65.4839 54.3959H67.7419V60.0411C67.7419 60.6643 67.235 61.1701 66.6129 61.1701ZM67.7419 51.0088V52.1379H65.4839C64.2385 52.1379 63.2258 51.1251 63.2258 49.8798V47.6217H64.3548C66.2223 47.6217 67.7419 49.1414 67.7419 51.0088ZM32.7679 45.3637V34.0734H38.0473C40.8936 34.0734 43.6134 35.1358 45.7055 37.0664L54.6937 45.3637H32.7679ZM51.9355 39.7456L49.6774 37.6614V29.5572H51.9355V39.7456Z" fill="#219653"/>
</svg>
