<svg width="70" height="71" viewBox="0 0 70 71" fill="none" xmlns="http://www.w3.org/2000/svg">
<path d="M32.9796 35.2897C32.445 35.8227 32.445 36.6884 32.9796 37.223C33.5142 37.7576 34.3793 37.7576 34.9129 37.223C35.4475 36.6884 35.4475 35.8227 34.9129 35.2897C34.3793 34.7551 33.5142 34.7551 32.9796 35.2897Z" fill="#EEAA2B"/>
<path d="M54.719 4.20153C52.3729 6.01788 51.7336 6.95409 43.4129 15.1888L38.4248 14.3765L40.7138 12.0875C42.317 10.4842 42.3176 7.8903 40.7138 6.28705C39.1111 4.68433 36.5155 4.68379 34.9128 6.28705L28.4475 12.7524L5.83636 9.07111C4.37517 8.83398 2.88033 9.31731 1.83464 10.363C-0.176106 12.3737 0.0967992 15.7004 2.39059 17.3603L24.9232 33.678L20.7046 37.8971C19.2589 39.3428 17.7374 41.3311 16.1737 43.8139L5.66546 40.7239C4.11454 40.2683 2.43973 40.695 1.29417 41.8385C-0.656227 43.7888 -0.361425 47.0279 1.90406 48.597L10.5185 54.5603C9.01883 57.8699 8.10719 60.263 8.065 60.3736C7.8738 60.8767 7.9961 61.4454 8.37636 61.8257C8.75874 62.2081 9.32805 62.3272 9.82847 62.1371C9.93902 62.0954 12.3321 61.1832 15.6417 59.6836L21.6056 68.2985C23.1773 70.5678 26.4164 70.8551 28.3647 68.9068C29.5076 67.7623 29.9343 66.0875 29.4782 64.5366L26.3886 54.0289C28.8731 52.4641 30.8603 50.9426 32.3055 49.498L36.5246 45.2789L52.8418 67.8115C54.5043 70.109 57.831 70.376 59.8396 68.3674C60.8848 67.3223 61.3681 65.8264 61.1315 64.3646L57.4502 41.7551L63.915 35.2903C65.5183 33.6871 65.5183 31.0915 63.915 29.4888C62.3123 27.8856 59.7184 27.8856 58.1151 29.4888L55.8256 31.7778L55.0138 26.7897C63.257 18.4604 64.1783 17.8361 65.9957 15.49C65.9979 15.4873 66.0005 15.4841 66.0027 15.4809C70.2196 10.0159 71.2066 4.49634 68.4567 1.74539C65.7063 -1.00343 60.1862 -0.0175512 54.719 4.20153ZM36.8461 8.22088C37.3802 7.68629 38.2459 7.68629 38.7805 8.22088C39.3151 8.75548 39.3145 9.61905 38.7805 10.1537L35.0987 13.8349L31.7731 13.2934L36.8461 8.22088ZM3.99385 15.145C3.05817 14.4683 2.95082 13.1134 3.76847 12.2963C4.19412 11.8701 4.80402 11.6731 5.39789 11.7697L41.0305 17.5712L26.8816 31.7196L3.99385 15.145ZM3.22747 43.7728C3.66433 43.3365 4.30307 43.1731 4.89427 43.3472L14.7226 46.2375C13.7175 47.9978 12.7033 49.9423 11.6918 52.047L3.46085 46.3491C2.59728 45.751 2.48405 44.5157 3.22747 43.7728ZM26.4303 66.9746C25.6933 67.7116 24.4564 67.6123 23.8535 66.7417L18.1556 58.5103C20.2619 57.4977 22.2069 56.483 23.9651 55.48L26.8549 65.3078C27.029 65.8995 26.8661 66.5383 26.4303 66.9746ZM60.0489 31.4221C60.583 30.8881 61.4471 30.8875 61.9817 31.4221C62.5163 31.9567 62.5158 32.8219 61.9817 33.3565L56.9087 38.429L56.3677 35.1034L60.0489 31.4221ZM58.4323 64.8031C58.529 65.3986 58.3319 66.0085 57.9063 66.4341C57.0929 67.2475 55.7369 67.1482 55.0571 66.2082L38.4825 43.321L52.6314 29.1721L58.4323 64.8031ZM30.3722 47.5641C28.8678 49.0691 26.6658 50.6937 23.8278 52.3936C20.1385 54.6031 15.7726 56.6955 11.8344 58.3682C13.5525 54.3232 15.6845 49.8868 17.9414 46.1553C19.5922 43.4241 21.1725 41.2958 22.6385 39.8304C56.0355 6.51349 54.0568 8.2321 56.0835 6.61122C58.3319 6.46756 60.3112 7.13513 61.689 8.51301C63.0669 9.89089 63.735 11.8707 63.5914 14.1185C61.9668 16.1501 63.6651 14.1906 30.3722 47.5641ZM65.9311 10.5259C65.4942 9.01877 64.7182 7.67507 63.6229 6.57971C62.5275 5.48488 61.1838 4.70836 59.6772 4.2715C61.6559 3.268 64.9879 2.14433 66.5234 3.67869C67.7357 4.89154 67.4345 7.56132 65.9311 10.5259Z" fill="#EEAA2B"/>
<path d="M40.7137 27.5555L36.8471 31.4215C36.313 31.9556 36.313 32.8213 36.8471 33.3554C37.3811 33.8894 38.2463 33.8889 38.7809 33.3554L42.647 29.4888C43.181 28.9552 43.181 28.0895 42.647 27.5555C42.1129 27.0214 41.2477 27.0214 40.7137 27.5555Z" fill="#EEAA2B"/>
<path d="M48.448 19.8212L44.5798 23.6889C44.0463 24.2229 44.0463 25.0886 44.5798 25.6227C45.1144 26.1562 45.9796 26.1562 46.5137 25.6227L50.3813 21.755C50.9154 21.221 50.9154 20.3553 50.3813 19.8212C49.8473 19.2871 48.9821 19.2871 48.448 19.8212Z" fill="#EEAA2B"/>
</svg>
