<svg width="73" height="71" viewBox="0 0 73 71" fill="none" xmlns="http://www.w3.org/2000/svg">
<path d="M6.93194 11.446C7.1854 11.446 7.44 11.3558 7.6432 11.1728C7.89695 10.9443 8.15822 10.716 8.41964 10.4942C8.8675 10.1143 8.92274 9.44326 8.54275 8.9954C8.16291 8.54754 7.49197 8.49216 7.04397 8.87229C6.76651 9.10758 6.48933 9.34997 6.21996 9.5925C5.78346 9.98555 5.74839 10.6579 6.14144 11.0944C6.35131 11.3274 6.64099 11.446 6.93194 11.446Z" fill="#0600AE"/>
<path d="M35.704 2.69023C36.3908 2.79034 37.0827 2.9126 37.7605 3.05389C37.8338 3.06908 37.9068 3.07646 37.9786 3.07646C38.4716 3.07646 38.9139 2.73155 39.0186 2.22973C39.1384 1.65479 38.7694 1.09163 38.1944 0.971781C37.4745 0.82169 36.7397 0.691905 36.0105 0.585549C35.4292 0.501061 34.8896 0.903339 34.805 1.48468C34.7202 2.06587 35.1228 2.6056 35.704 2.69023Z" fill="#0600AE"/>
<path d="M52.6729 10.2477C53.2073 10.6907 53.7346 11.1556 54.2407 11.6295C54.4458 11.8215 54.7067 11.9166 54.9672 11.9166C55.2512 11.9166 55.5343 11.8036 55.7437 11.5801C56.1452 11.1514 56.1232 10.4785 55.6945 10.077C55.1574 9.57407 54.5975 9.08078 54.0304 8.61062C53.578 8.23575 52.9081 8.29851 52.5331 8.75049C52.1583 9.20247 52.2209 9.87284 52.6729 10.2477Z" fill="#0600AE"/>
<path d="M41.791 4.15443C42.4482 4.37793 43.1071 4.62458 43.749 4.8877C43.8811 4.9418 44.0176 4.96736 44.1519 4.96736C44.5706 4.96736 44.9677 4.7183 45.1364 4.30679C45.359 3.76337 45.099 3.14227 44.5554 2.91962C43.8736 2.64017 43.1737 2.37818 42.4756 2.14091C41.92 1.95177 41.3156 2.24939 41.1265 2.80531C40.9374 3.36137 41.235 3.96529 41.791 4.15443Z" fill="#0600AE"/>
<path d="M29.4141 2.35124C29.4269 2.35124 29.4397 2.35109 29.4524 2.35053C30.1431 2.3261 30.8476 2.32227 31.5428 2.33888C32.1297 2.35578 32.6174 1.88847 32.6315 1.30131C32.6455 0.714151 32.1811 0.226817 31.5939 0.212617C30.8569 0.195151 30.1099 0.199269 29.3773 0.225113C28.7903 0.245844 28.3314 0.738574 28.3522 1.32545C28.3724 1.89954 28.8441 2.35124 29.4141 2.35124Z" fill="#0600AE"/>
<path d="M61.6567 21.6475C61.8414 22.0244 62.2193 22.2432 62.6125 22.2432C62.7695 22.2432 62.929 22.2083 63.0795 22.1344C63.6069 21.876 63.825 21.239 63.5665 20.7116C63.2428 20.0508 62.8946 19.3915 62.5315 18.7519C62.2416 18.2412 61.5925 18.0624 61.0819 18.3521C60.5711 18.642 60.3921 19.2911 60.682 19.8018C61.0237 20.4042 61.3517 21.0252 61.6567 21.6475Z" fill="#0600AE"/>
<path d="M58.4051 16.3029C58.6137 16.5845 58.9349 16.7334 59.2604 16.7334C59.4803 16.7334 59.7023 16.6654 59.8926 16.5244C60.3644 16.1748 60.4635 15.5089 60.1139 15.037C59.6756 14.4452 59.2138 13.8594 58.7417 13.2961C58.3641 12.846 57.6936 12.7869 57.2435 13.1643C56.7935 13.5416 56.7345 14.2124 57.1117 14.6624C57.5568 15.1932 57.9919 15.7453 58.4051 16.3029Z" fill="#0600AE"/>
<path d="M63.2603 25.4987C63.4876 26.1543 63.6974 26.825 63.8835 27.4918C64.0147 27.9616 64.442 28.2694 64.9072 28.2694C65.0019 28.2694 65.0982 28.2566 65.1939 28.2299C65.7595 28.0718 66.09 27.4852 65.932 26.9195C65.7342 26.2111 65.5114 25.4987 65.27 24.8022C65.0777 24.2474 64.4717 23.9535 63.9169 24.1456C63.362 24.338 63.068 24.9439 63.2603 25.4987Z" fill="#0600AE"/>
<path d="M23.0133 3.16105C23.0891 3.16105 23.1661 3.15281 23.2432 3.13592C23.9192 2.98696 24.6096 2.85675 25.2951 2.74897C25.8753 2.65767 26.2716 2.11339 26.1804 1.53319C26.0892 0.953135 25.5447 0.556537 24.9646 0.647841C24.2367 0.762291 23.5036 0.900596 22.7854 1.05892C22.2119 1.1853 21.8494 1.75272 21.9759 2.32625C22.0853 2.82267 22.5251 3.16105 23.0133 3.16105Z" fill="#0600AE"/>
<path d="M47.5106 6.7039C48.1151 7.04256 48.718 7.4048 49.3023 7.78052C49.4802 7.89483 49.6793 7.9495 49.8764 7.9495C50.2261 7.9495 50.5688 7.77711 50.7718 7.46103C51.0895 6.96702 50.9463 6.309 50.4523 5.9915C49.8319 5.59277 49.192 5.2081 48.5501 4.84856C48.0375 4.56145 47.3896 4.74405 47.1026 5.25652C46.8156 5.76885 46.9983 6.41692 47.5106 6.7039Z" fill="#0600AE"/>
<path d="M16.8678 5.12022C17.0059 5.12022 17.1462 5.0931 17.2815 5.03601C17.9204 4.76579 18.5754 4.51204 19.2289 4.28158C19.7827 4.08634 20.0733 3.47887 19.878 2.92508C19.6827 2.37115 19.0751 2.08048 18.5215 2.27601C17.8274 2.52068 17.1316 2.79047 16.4531 3.0773C15.9123 3.30606 15.6592 3.93 15.888 4.47101C16.0594 4.87641 16.4533 5.12022 16.8678 5.12022Z" fill="#0600AE"/>
<path d="M11.1791 8.16488C11.3799 8.16488 11.5829 8.10808 11.7631 7.98938C12.3425 7.60783 12.9408 7.2392 13.5418 6.89358C14.0508 6.60078 14.2262 5.95072 13.9335 5.44166C13.6409 4.93246 12.9908 4.75724 12.4816 5.04989C11.8436 5.41681 11.2083 5.80816 10.5933 6.21327C10.1029 6.53632 9.96714 7.19575 10.2902 7.68621C10.4945 7.99662 10.8335 8.16488 11.1791 8.16488Z" fill="#0600AE"/>
<path d="M65.6557 30.3819C65.0749 30.4696 64.6752 31.0114 64.7628 31.592C64.814 31.9311 64.8606 32.2752 64.9017 32.6147C64.967 33.1544 65.4258 33.5506 65.956 33.5506C65.9986 33.5506 66.0417 33.5481 66.0849 33.5428C66.668 33.4724 67.0834 32.9426 67.0132 32.3595C66.9696 31.9994 66.92 31.6344 66.8658 31.2747C66.7781 30.6941 66.2346 30.2948 65.6557 30.3819Z" fill="#0600AE"/>
<path d="M13.348 28.3459C13.348 27.7586 12.8719 27.2825 12.2846 27.2825H10.2424C9.65507 27.2825 9.17896 27.7586 9.17896 28.3459C9.17896 28.9332 9.65507 29.4093 10.2424 29.4093H12.2846C12.8719 29.4093 13.348 28.9332 13.348 28.3459Z" fill="#0600AE"/>
<path d="M15.7406 32.1527H13.6984C13.1111 32.1527 12.635 32.6288 12.635 33.2161C12.635 33.8034 13.1111 34.2795 13.6984 34.2795H15.7405C16.3278 34.2795 16.8039 33.8034 16.8039 33.2161C16.804 32.6288 16.3279 32.1527 15.7406 32.1527Z" fill="#0600AE"/>
<path d="M10.871 41.7346H8.8288C8.2415 41.7346 7.76538 42.2107 7.76538 42.798C7.76538 43.3853 8.2415 43.8615 8.8288 43.8615H10.8709C11.4582 43.8615 11.9343 43.3853 11.9343 42.798C11.9344 42.2107 11.4583 41.7346 10.871 41.7346Z" fill="#0600AE"/>
<path d="M32.7357 11.259H30.6935C30.1062 11.259 29.6301 11.7351 29.6301 12.3224C29.6301 12.9097 30.1062 13.3859 30.6935 13.3859H32.7357C33.323 13.3859 33.7992 12.9097 33.7992 12.3224C33.7992 11.7351 33.323 11.259 32.7357 11.259Z" fill="#0600AE"/>
<path d="M39.7652 52.2332C39.7652 51.6459 39.2893 51.1698 38.7018 51.1698H36.6596C36.0723 51.1698 35.5962 51.6459 35.5962 52.2332C35.5962 52.8205 36.0723 53.2966 36.6596 53.2966H38.7018C39.2891 53.2966 39.7652 52.8205 39.7652 52.2332Z" fill="#0600AE"/>
<path d="M34.2321 55.1046H32.1899C31.6026 55.1046 31.1265 55.5807 31.1265 56.168C31.1265 56.7553 31.6026 57.2315 32.1899 57.2315H34.2321C34.8194 57.2315 35.2955 56.7553 35.2955 56.168C35.2955 55.5807 34.8194 55.1046 34.2321 55.1046Z" fill="#0600AE"/>
<path d="M71.5744 37.3254C70.8246 36.5755 69.7879 36.1647 68.7268 36.1994C65.9428 36.2891 63.2756 37.4299 61.2806 39.3534C61.3506 38.5044 61.3866 37.6485 61.3866 36.787C61.3866 34.5066 61.1384 32.2449 60.6366 30.0183C59.7964 26.2908 58.2504 22.7304 56.1055 19.5685C55.0326 17.987 53.812 16.5061 52.4645 15.1507C51.3925 14.0724 50.2592 13.0906 49.0496 12.1847C47.2517 10.838 45.1939 9.63272 43.2131 8.74709C39.2848 6.99058 34.9952 6.09387 30.6935 6.09387C22.495 6.09387 14.7873 9.28654 8.99026 15.0836C8.43165 15.6422 7.90115 16.2149 7.38769 16.8141C2.62368 22.3684 0 29.4618 0 36.7871C0 45.6458 3.75554 53.9374 10.353 59.7702C13.391 62.466 16.9782 64.565 20.8398 65.8705C24.0084 66.9418 27.3495 67.4802 30.6937 67.4802C35.7418 67.4802 40.6015 66.2652 44.9461 63.9814L47.1352 68.7977C47.4607 69.5138 48.117 70.025 48.891 70.1654C49.6416 70.3016 50.4631 70.0535 51.0152 69.5013L52.605 67.9115C53.0287 67.4878 53.2773 66.9246 53.305 66.3258L53.4977 62.1485L57.6205 58.4058L62.6689 66.0445C63.0676 66.648 63.709 67.0358 64.4288 67.1086C65.1246 67.1789 65.8581 66.9263 66.3662 66.4182L67.9557 64.8289C68.4976 64.2869 68.7489 63.5115 68.6282 62.7548L66.6343 50.2551L68.93 48.2159C71.2269 46.1754 72.601 43.2439 72.7003 40.173C72.7348 39.1132 72.3244 38.0752 71.5744 37.3254ZM47.081 13.3859C53.4024 17.8194 57.6514 24.5925 58.8855 32.1528H41.3405C40.7014 32.1528 40.1004 31.9038 39.6483 31.4517C39.1963 30.9997 38.9474 30.3988 38.9474 29.7595C38.9474 28.44 40.0209 27.3665 41.3405 27.3665H45.5865C46.7926 27.3665 47.9273 26.8972 48.7826 26.044C49.6361 25.1902 50.1064 24.0552 50.1064 22.848C50.1064 20.3556 48.0787 18.3281 45.5865 18.3281H43.6241C42.9638 18.3281 42.3433 18.0712 41.876 17.6039C41.4092 17.1381 41.1521 16.518 41.1521 15.8576C41.1521 14.4946 42.261 13.3857 43.6241 13.3857H47.081V13.3859ZM30.6937 65.3532C25.1244 65.3532 19.9228 63.7507 15.5245 60.9831H22.8091C24.1841 60.9831 25.4771 60.4475 26.4498 59.475C27.4223 58.5023 27.958 57.21 27.958 55.8359C27.958 52.9977 25.6482 50.6886 22.8091 50.6886H19.039C18.652 50.6886 18.2881 50.538 18.0143 50.2642C17.7407 49.9906 17.5899 49.6261 17.5899 49.238C17.5899 48.439 18.24 47.7889 19.039 47.7889H32.9156C34.5265 47.7889 36.041 47.1614 37.1807 46.022C38.3201 44.8825 38.9475 43.3674 38.9475 41.7556C38.9475 38.4296 36.2416 35.7237 32.9156 35.7237H27.4223C25.2051 35.7237 23.4013 33.9199 23.4013 31.7026V31.3637C23.4013 30.3791 23.7841 29.4548 24.4799 28.7602C25.1754 28.0647 26.1005 27.6816 27.0848 27.6816C28.5864 27.6816 29.9973 27.0965 31.0562 26.0357C32.1185 24.9754 32.7035 23.5645 32.7035 22.0629C32.7035 18.9639 30.1831 16.4428 27.085 16.4428H19.8361C19.2488 16.4428 18.7727 16.9189 18.7727 17.5062C18.7727 18.0935 19.2488 18.5696 19.8361 18.5696H27.085C29.0103 18.5696 30.5768 20.1367 30.5768 22.0629C30.5768 22.9956 30.2136 23.8719 29.5526 24.5318C28.8941 25.1915 28.0179 25.5547 27.0851 25.5547C25.5326 25.5547 24.0735 26.1589 22.9768 27.2556C21.8792 28.3514 21.2747 29.8102 21.2747 31.3635V31.7025C21.2747 35.0924 24.0326 37.8504 27.4226 37.8504H32.9159C35.0692 37.8504 36.821 39.6022 36.821 41.7555C36.821 42.7991 36.4147 43.7803 35.6769 44.518C34.9391 45.2557 33.9586 45.6621 32.9159 45.6621H19.0393C17.0675 45.6621 15.4635 47.2662 15.4635 49.2379C15.4635 50.1941 15.8354 51.0925 16.5109 51.7678C17.1863 52.4433 18.0842 52.8152 19.0394 52.8152H22.8096C24.4759 52.8152 25.8316 54.1701 25.8316 55.8356C25.8316 56.6416 25.5172 57.3998 24.9463 57.9708C24.3754 58.5418 23.6165 58.8562 22.8096 58.8562H12.5551C5.9227 53.4029 2.12683 45.3808 2.12683 36.787C2.12683 30.1314 4.45402 23.6816 8.68937 18.5696H14.8613C15.4486 18.5696 15.9247 18.0935 15.9247 17.5062C15.9247 16.9189 15.4486 16.4428 14.8613 16.4428H10.6643C15.8237 11.3621 22.8977 8.22042 30.6937 8.22042C35.2989 8.22042 39.652 9.31749 43.5079 11.2617C41.0257 11.3238 39.0252 13.3606 39.0252 15.8575C39.0252 17.0869 39.5042 18.2417 40.3729 19.1085C41.2411 19.9766 42.3957 20.4548 43.6241 20.4548H45.5865C46.9061 20.4548 47.9796 21.5284 47.9796 22.8478C47.9796 23.487 47.7306 24.0879 47.2795 24.5392C46.8267 24.9909 46.2255 25.2395 45.5865 25.2395H41.3405C38.8483 25.2395 36.8206 27.2672 36.8206 29.7594C36.8206 30.9667 37.2907 32.1016 38.1444 32.9555C38.9984 33.8092 40.1334 34.2793 41.3405 34.2793H59.1492C59.222 35.1056 59.26 35.9418 59.26 36.7867C59.26 38.6172 59.0842 40.4071 58.7536 42.1427L58.6484 42.2611L53.1632 41.3861C52.5825 41.293 52.038 41.6889 51.9455 42.2686C51.8531 42.8485 52.2483 43.3938 52.8281 43.4863L56.9489 44.1437L51.9309 49.6775L44.0224 44.4508C43.9333 44.3921 43.9076 44.3098 43.9018 44.2512C43.8959 44.1927 43.9047 44.1069 43.9799 44.0315L45.5694 42.4422C45.6308 42.3808 45.7187 42.3526 45.8044 42.3659L47.8863 42.698C48.4663 42.7905 49.0113 42.3953 49.1039 41.8155C49.1963 41.2356 48.8012 40.6903 48.2214 40.5979L46.1394 40.2658C45.3833 40.1452 44.6073 40.3965 44.0657 40.9384L42.4762 42.5278C41.9647 43.0394 41.7131 43.7454 41.7858 44.465C41.8586 45.1847 42.2463 45.8262 42.8499 46.2251L50.4952 51.2778L46.7513 55.4018L42.574 55.5945C41.9755 55.6222 41.4125 55.8708 40.9888 56.2945L39.3987 57.8845C38.8426 58.4407 38.5944 59.2347 38.7347 60.0088C38.875 60.7826 39.3863 61.4391 40.1023 61.7646L42.434 62.8244C38.8504 64.447 34.8763 65.3532 30.6937 65.3532ZM66.4522 63.325L64.8629 64.9142C64.7875 64.9896 64.7014 64.9981 64.6432 64.9926C64.5847 64.9866 64.5025 64.9609 64.4437 64.8719L59.2169 56.9634L64.7507 51.9455L66.5285 63.09C66.5421 63.1756 66.5136 63.2636 66.4522 63.325ZM67.5178 46.626L63.5615 50.1404L51.7412 60.8708C51.5318 61.061 51.4067 61.3266 51.3936 61.6092L51.1805 66.2277C51.1775 66.2955 51.1492 66.3594 51.1009 66.4076L49.5111 67.9974C49.4281 68.0807 49.3342 68.084 49.2703 68.0726C49.2064 68.061 49.1199 68.0248 49.0714 67.9176L46.7085 62.7192C46.602 62.4852 46.4145 62.2976 46.1805 62.1911L40.9821 59.8283C40.8749 59.7796 40.8387 59.6931 40.827 59.6292C40.8154 59.5653 40.8191 59.4716 40.9021 59.3884L42.4922 57.7984C42.5402 57.7504 42.6041 57.7222 42.6718 57.7191L47.2904 57.5059C47.573 57.4929 47.8386 57.3678 48.0287 57.1583L62.2737 41.382C63.9282 39.5194 66.3051 38.4052 68.7952 38.3248C68.8144 38.3242 68.8337 38.324 68.8529 38.324C69.3128 38.324 69.7433 38.502 70.0703 38.8292C70.4111 39.1698 70.5902 39.6227 70.5746 40.1043C70.4945 42.5944 69.3802 44.9713 67.5178 46.626Z" fill="#0600AE"/>
</svg>
