<svg width="759" height="638" viewBox="0 0 759 638" fill="none" xmlns="http://www.w3.org/2000/svg">
<path d="M65.0107 406.288H728.392C783.379 371.549 755.081 267.015 709.154 245.826C659.716 223.015 738.22 144.127 662.063 118.522C612.341 101.803 544.951 120.48 512.034 84.489C473.358 42.2023 409.112 -9.26898 289.456 30.728C197.168 61.5735 247.295 121.044 96.2775 138.949C18.6234 148.156 33.6296 226.931 40.8689 243.21C47.1762 257.387 88.8975 279.876 30.9127 310.847C-54.1126 356.26 63.006 405.451 65.0107 406.288Z" fill="#FFFBF3"/>
<path d="M265.295 261.854C265.295 261.854 350.381 145.972 400.984 146.344C451.588 146.716 506.714 222.673 578.727 287.542C659.429 360.239 554.051 363.291 547.969 363.89C541.888 364.489 332.059 356.519 328.561 352.597C325.062 348.672 269.037 298.409 269.037 298.409L265.295 261.854Z" fill="#FFE3B0"/>
<path d="M221.227 238.54C293.871 254.802 402.87 400.928 485.891 400.928C568.912 400.928 586.788 365.977 617.921 373.367C649.054 380.757 690.849 400.928 690.849 400.928L73.9167 403.381C73.9167 403.381 148.584 222.279 221.227 238.54Z" fill="#D6C5A7"/>
<path d="M550.491 238.54C477.848 254.802 368.849 400.928 285.827 400.928C202.806 400.928 184.93 365.977 153.797 373.367C122.664 380.757 80.8694 400.928 80.8694 400.928L697.802 403.381C697.805 403.381 623.135 222.279 550.491 238.54Z" fill="#E3EEFF"/>
<path d="M73.9167 403.38C73.9167 403.38 153.563 310.311 256.257 304.595C290.742 302.675 431.947 341.166 550.855 371.406C555.854 372.677 566.66 385.123 571.722 386.403C628.014 400.638 680.474 403.645 697.441 404.566L73.9167 403.38Z" fill="#E3FFF8"/>
<path d="M724.011 406.669C724.011 406.669 693.054 354.423 673.574 346.412C654.095 338.398 672.454 370.224 672.454 370.224C672.454 370.224 637.896 322.212 625.217 326.541C613.593 330.51 625.217 360.268 625.217 360.268C625.217 360.268 612.124 343.789 596.248 343.789C580.369 343.789 608.52 405.496 608.52 405.496L724.011 406.669Z" fill="#FFFBF3"/>
<path opacity="0.5" d="M393.392 38.3301C391.879 31.2492 385.985 25.9654 378.939 25.9654C377.646 25.9654 376.391 26.1451 375.194 26.4792C371.716 18.4841 364.168 12.9417 355.415 12.9417C353.152 12.9417 350.97 13.3106 348.917 13.9978C344.205 5.60859 335.645 0 325.866 0C314.23 0 304.322 7.93841 300.565 19.0516C297.909 17.4595 294.847 16.5483 291.589 16.5483C281.391 16.5483 273.124 25.4357 273.124 36.4007C273.124 37.0501 273.157 37.6933 273.212 38.327H393.392V38.3301Z" fill="white"/>
<path opacity="0.5" d="M557.224 162.186C557.954 158.775 560.793 156.23 564.185 156.23C564.81 156.23 565.411 156.316 565.989 156.476C567.663 152.627 571.299 149.957 575.513 149.957C576.604 149.957 577.654 150.136 578.642 150.467C580.912 146.429 585.032 143.727 589.741 143.727C595.345 143.727 600.116 147.551 601.925 152.901C603.204 152.135 604.678 151.694 606.247 151.694C611.159 151.694 615.138 155.975 615.138 161.253C615.138 161.565 615.124 161.874 615.097 162.179H557.224V162.186Z" fill="white"/>
<path opacity="0.5" d="M455.617 117.825C454.723 113.635 451.234 110.507 447.064 110.507C446.298 110.507 445.556 110.615 444.847 110.81C442.788 106.078 438.322 102.799 433.144 102.799C431.804 102.799 430.513 103.017 429.299 103.426C426.511 98.461 421.447 95.1444 415.658 95.1444C408.773 95.1444 402.908 99.8419 400.685 106.421C399.114 105.479 397.301 104.94 395.372 104.94C389.337 104.94 384.443 110.198 384.443 116.69C384.443 117.074 384.461 117.456 384.496 117.831H455.617V117.825Z" fill="white"/>
<path opacity="0.5" d="M594.163 68.5958C592.952 62.9367 588.242 58.7122 582.609 58.7122C581.574 58.7122 580.571 58.854 579.615 59.122C576.835 52.7316 570.804 48.3052 563.81 48.3052C562.001 48.3052 560.259 48.6016 558.617 49.1501C554.851 42.4476 548.01 37.9645 540.193 37.9645C530.894 37.9645 522.974 44.3108 519.974 53.1919C517.851 51.9182 515.405 51.1899 512.798 51.1899C504.649 51.1899 498.04 58.2929 498.04 67.0573C498.04 67.5775 498.063 68.0914 498.11 68.5958H594.163V68.5958Z" fill="white"/>
<path opacity="0.5" d="M206.694 137.724C207.299 134.903 209.647 132.797 212.454 132.797C212.97 132.797 213.468 132.869 213.946 133.001C215.333 129.817 218.339 127.607 221.825 127.607C222.726 127.607 223.597 127.755 224.415 128.03C226.291 124.688 229.702 122.453 233.599 122.453C238.235 122.453 242.182 125.615 243.677 130.044C244.736 129.411 245.956 129.048 247.255 129.048C251.319 129.048 254.612 132.588 254.612 136.958C254.612 137.217 254.601 137.472 254.577 137.724H206.694Z" fill="white"/>
<path d="M384.949 226.745V225.339H380.498V226.745H384.949Z" fill="#EEAA2B"/>
<path d="M389.885 258.635V225.201C389.885 222.991 388.22 221.2 386.164 221.2H379.69C377.634 221.2 375.968 222.991 375.968 225.201V258.638C375.968 260.848 377.634 262.639 379.69 262.639H386.164C388.22 262.636 389.885 260.845 389.885 258.635Z" fill="#F47458"/>
<path d="M382.927 262.636H386.66C388.44 262.636 389.885 261.791 389.885 260.747V223.089C389.885 222.045 388.874 221.2 387.091 221.2H382.927V262.636Z" fill="#B75742"/>
<path d="M383.546 246.183V236.529H381.901V246.183H383.546Z" fill="#666666"/>
<path d="M403.143 258.578V234.249C403.143 232.008 401.453 230.192 399.369 230.192H392.999C390.915 230.192 389.225 232.008 389.225 234.249V258.578C389.225 260.82 390.915 262.636 392.999 262.636H399.369C401.451 262.636 403.143 260.82 403.143 258.578Z" fill="#355389"/>
<path d="M396.184 262.636H399.917C401.697 262.636 403.143 261.974 403.143 261.157V231.667C403.143 230.851 401.7 230.189 399.917 230.189H396.184V262.636Z" fill="#5184CE"/>
<path d="M398.207 234.534V233.431H393.756V234.534H398.207Z" fill="#EEAA2B"/>
<path d="M396.804 249.754V242.194H395.159V249.754H396.804Z" fill="#666666"/>
<path d="M330.33 263.169H329.663V270.448H330.33V263.169Z" fill="#3793D8"/>
<path d="M410.953 263.169H410.286V270.448H410.953V263.169Z" fill="#3793D8"/>
<path d="M381.859 247.667H335.894C333.639 247.667 331.813 249.631 331.813 252.056V258.241C331.813 260.666 333.639 262.63 335.894 262.63H381.859C384.114 262.63 385.941 260.666 385.941 258.241V252.056C385.941 249.631 384.114 247.667 381.859 247.667Z" fill="#B75742"/>
<path d="M385.941 255.148V251.135C385.941 249.221 384.836 247.667 383.475 247.667H334.276C332.915 247.667 331.81 249.218 331.81 251.135V255.148H385.941Z" fill="#91342A"/>
<path d="M340.525 252.973H338.686V257.759H340.525V252.973Z" fill="#EEAA2B"/>
<path d="M379.068 252.973H377.229V257.759H379.068V252.973Z" fill="#EEAA2B"/>
<path d="M364.447 254.48H351.835V256.249H364.447V254.48Z" fill="#666666"/>
<path d="M373.766 232.705H343.988C341.569 232.705 339.607 234.814 339.607 237.415V242.954C339.607 245.555 341.569 247.664 343.988 247.664H373.766C376.185 247.664 378.147 245.555 378.147 242.954V237.415C378.147 234.814 376.185 232.705 373.766 232.705Z" fill="#4E9B87"/>
<path d="M378.147 240.186V236.173C378.147 234.259 377.361 232.705 376.391 232.705H341.361C340.39 232.705 339.604 234.256 339.604 236.173V240.186H378.147Z" fill="#3C8F7C"/>
<path d="M344.762 238.01H343.454V242.796H344.762V238.01Z" fill="#EEAA2B"/>
<path d="M408.007 262.617L376.121 262.598L375.608 247.327H408.007C411.934 247.327 415.118 250.75 415.118 254.972C415.121 259.193 411.937 262.617 408.007 262.617Z" fill="#FAE0B2"/>
<path d="M382.927 254.969C382.927 259.19 379.994 262.614 376.376 262.614C372.757 262.614 369.825 259.19 369.825 254.969C369.825 250.747 372.757 247.324 376.376 247.324C379.994 247.324 382.927 250.747 382.927 254.969Z" fill="#EEAA2B"/>
<path d="M389.683 263.333L389.677 263.326C389.384 263.081 389.325 262.633 389.539 262.305C391.697 259.026 392.299 255.536 391.325 251.923C390.782 249.912 389.871 248.38 389.357 247.62C389.149 247.314 389.193 246.885 389.457 246.633L389.466 246.627C389.771 246.337 390.24 246.39 390.48 246.743C391.058 247.595 392.038 249.25 392.642 251.447C393.422 254.294 393.68 258.588 390.671 263.166C390.442 263.516 389.994 263.591 389.683 263.333Z" fill="#F47458"/>
<path d="M401.336 263.333L401.33 263.326C401.037 263.081 400.978 262.633 401.195 262.305C403.354 259.026 403.955 255.536 402.981 251.923C402.439 249.912 401.527 248.38 401.013 247.62C400.805 247.314 400.849 246.885 401.113 246.633L401.122 246.627C401.427 246.337 401.896 246.39 402.137 246.743C402.714 247.595 403.694 249.25 404.298 251.447C405.078 254.294 405.336 258.588 402.327 263.166C402.098 263.516 401.65 263.591 401.336 263.333Z" fill="#F47458"/>
<path d="M381.795 253.604C381.446 251.195 380.235 249.981 379.282 249.385C377.862 248.503 376.038 248.376 374.399 249.054C372.842 249.697 371.599 251.16 371.153 252.875C370.757 254.401 371.051 255.952 371.98 257.242C373.543 259.411 375.939 259.067 377.109 258.525C378.17 258.033 378.965 256.863 379.138 255.549C379.276 254.486 378.83 253.459 377.971 252.869C377.106 252.276 376.047 252.27 375.2 252.856C374.584 253.282 373.974 254.127 374.552 255.719L375.021 255.524C374.651 254.502 374.798 253.78 375.473 253.31C376.15 252.841 377.003 252.844 377.698 253.323C378.39 253.796 378.748 254.622 378.639 255.473C378.493 256.605 377.813 257.607 376.909 258.027C375.871 258.509 373.751 258.815 372.379 256.911C371.314 255.432 371.388 253.979 371.637 253.02C372.036 251.491 373.188 250.133 374.578 249.559C376.074 248.941 377.739 249.051 379.027 249.855C380.258 250.621 381.044 251.948 381.296 253.689C381.625 255.955 381.229 257.762 380.123 259.061C378.044 261.498 373.637 261.463 372.88 261.438C373.156 261.64 373.443 261.819 373.742 261.974C373.754 261.974 373.769 261.974 373.781 261.974C375.121 261.974 378.525 261.731 380.493 259.43C381.71 258.002 382.147 256.044 381.795 253.604Z" fill="#F47458"/>
<path d="M373.25 238.01H371.942V242.796H373.25V238.01Z" fill="#EEAA2B"/>
<path d="M362.843 239.517H353.864V241.286H362.843V239.517Z" fill="#666666"/>
<path d="M350.992 232.064L335.835 262.961L336.268 263.206L351.425 232.309L350.992 232.064Z" fill="#666666"/>
<path d="M368.012 231.841L367.578 232.086L383.146 263.769L383.579 263.524L368.012 231.841Z" fill="#666666"/>
<path d="M400.037 229.761L399.583 229.959L412.198 263.194L412.652 262.996L400.037 229.761Z" fill="#666666"/>
<path d="M384.938 220.903L384.476 221.078L398.308 263.173L398.77 262.998L384.938 220.903Z" fill="#666666"/>
<path d="M414.057 262.594H326.693V263.581H414.057V262.594Z" fill="#3793D8"/>
<path d="M265.295 367.733C265.295 367.733 331.96 379.628 332.757 379.111C333.558 378.594 342.191 338.549 342.191 338.549C342.191 338.549 287.065 327.893 286.171 327.893C285.279 327.893 273.289 338.205 273.127 338.893C272.966 339.58 265.295 367.733 265.295 367.733Z" fill="#666666"/>
<path d="M468.643 377.907C470.241 378.077 550.972 376.22 550.972 376.22L544.896 356.251C544.896 356.251 533.706 338.057 527.792 338.388C521.877 338.719 486.698 332.587 480.628 337.114C474.558 341.642 469.121 338.032 466.244 348.861C463.368 359.691 461.122 360.901 463.365 367.427C465.605 373.957 468.643 377.907 468.643 377.907Z" fill="#666666"/>
<path d="M298.956 404.415C314.132 404.415 326.435 391.183 326.435 374.861C326.435 358.54 314.132 345.308 298.956 345.308C283.779 345.308 271.476 358.54 271.476 374.861C271.476 391.183 283.779 404.415 298.956 404.415Z" fill="#666666"/>
<path d="M298.956 395.423C309.515 395.423 318.075 386.217 318.075 374.861C318.075 363.506 309.515 354.3 298.956 354.3C288.397 354.3 279.837 363.506 279.837 374.861C279.837 386.217 288.397 395.423 298.956 395.423Z" fill="#9E9DA2"/>
<path d="M298.956 388.613C306.017 388.613 311.741 382.457 311.741 374.862C311.741 367.267 306.017 361.11 298.956 361.11C291.895 361.11 286.171 367.267 286.171 374.862C286.171 382.457 291.895 388.613 298.956 388.613Z" fill="#D8D9DD"/>
<path d="M510.517 404.415C525.694 404.415 537.997 391.183 537.997 374.861C537.997 358.54 525.694 345.308 510.517 345.308C495.341 345.308 483.038 358.54 483.038 374.861C483.038 391.183 495.341 404.415 510.517 404.415Z" fill="#666666"/>
<path d="M510.517 395.423C521.076 395.423 529.636 386.217 529.636 374.861C529.636 363.506 521.076 354.3 510.517 354.3C499.958 354.3 491.398 363.506 491.398 374.861C491.398 386.217 499.958 395.423 510.517 395.423Z" fill="#9E9DA2"/>
<path d="M497.732 374.862C497.732 382.456 503.456 388.613 510.517 388.613C517.578 388.613 523.302 382.456 523.302 374.862C523.302 367.267 517.578 361.11 510.517 361.11C503.456 361.113 497.732 367.267 497.732 374.862Z" fill="#D8D9DD"/>
<path d="M573.604 346.736C571.282 330.267 563.772 326.808 541.556 322.032C517.045 316.761 485.924 299.573 485.924 299.573C485.924 299.573 432.848 271.615 419.846 268.405C406.844 265.196 374.869 266.113 348.014 266.343C321.157 266.574 305.384 274.594 291.742 286.051C278.101 297.508 254.44 306.218 254.44 306.218L250.141 307.044C245.722 307.892 242.502 312.026 242.502 316.852V357.72C242.502 362.348 245.402 366.396 249.563 367.576L265.096 371.986C266.36 372.219 267.538 371.255 267.676 369.88C269.377 353.162 282.822 340.453 298.853 340.475C315.899 340.497 329.878 355.558 329.869 373.884C329.869 375.968 329.687 378.005 329.347 379.981C328.995 382.021 330.452 383.903 332.382 383.903H475.341C478.118 383.903 480.276 381.28 479.909 378.32C479.733 376.895 479.64 375.441 479.634 373.966C479.584 355.863 493.199 340.857 510.034 340.485C527.484 340.097 541.741 355.192 541.741 373.865C541.741 375.101 541.68 376.321 541.556 377.522C541.21 380.924 543.659 383.903 546.844 383.903H567.399C571.138 383.903 574.167 380.647 574.167 376.627V355.22C574.167 352.383 574 349.545 573.604 346.736Z" fill="#EEAA2B"/>
<path d="M243.408 321.689H260.34C261.792 321.689 262.774 323.277 262.211 324.715L260.308 329.595C258.496 334.246 254.261 337.272 249.572 337.272H243.408C242.203 337.272 241.224 336.219 241.224 334.923V324.037C241.224 322.738 242.2 321.689 243.408 321.689Z" fill="#CF283C"/>
<path d="M546.67 329.252C555.995 330.787 566.734 340.28 566.734 340.28C569.3 343.246 567.179 348.06 563.42 347.805L545.239 346.569C541.463 346.314 538.243 343.536 537.19 339.627C535.422 333.063 536.926 327.647 546.67 329.252Z" fill="#EAFCFC"/>
<path d="M242.598 359.242C241.434 359.211 240.607 360.472 241.035 361.635C242.252 364.93 244.859 367.521 248.193 368.467L265.6 373.41C267.016 373.672 268.336 372.591 268.491 371.052C268.814 367.884 269.518 364.848 270.544 361.982C270.893 361.011 270.236 359.968 269.268 359.942L242.598 359.242Z" fill="#EEAA2B"/>
<path d="M541.888 366.945C540.565 366.91 539.545 368.156 539.715 369.568C539.903 371.135 539.999 372.733 539.999 374.354C539.999 375.725 539.929 377.081 539.794 378.414C539.41 382.188 542.128 385.495 545.659 385.495H568.47C572.616 385.495 575.979 381.879 575.979 377.421V371.075C575.979 369.275 574.645 367.806 572.971 367.762L541.888 366.945Z" fill="#EEAA2B"/>
<path opacity="0.5" d="M485.962 309.037C485.66 308.857 455.442 291.035 435.402 281.054C415.561 271.173 393.413 272.223 392.46 272.274C389.915 272.211 336.927 270.975 320.635 276.435C304.225 281.934 282.851 306.985 281.951 308.05L281.702 308.343L287.449 337.338L288.065 337.301C304.779 336.285 317.576 341.068 325.063 351.131C330.725 358.739 331.423 366.772 331.429 366.851L331.485 367.541L391.751 369.206V369.209L392.445 369.225L393.187 369.247V369.24L477.159 370.999L477.17 370.224C477.59 340.885 486.217 310.248 486.305 309.942L486.475 309.34L485.962 309.037ZM332.784 366.028C332.493 363.852 331.224 356.967 326.233 350.23C320.855 342.966 309.967 334.596 288.596 335.721L283.259 308.801C285.734 305.941 305.952 282.974 321.06 277.911C336.176 272.844 385.273 273.674 391.745 273.806V367.658L332.784 366.028ZM475.742 369.423L393.184 367.692V273.793C397.07 273.674 416.899 273.547 434.795 282.46C453.36 291.704 480.701 307.71 484.759 310.096C483.557 314.516 476.261 342.386 475.742 369.423Z" fill="#EEAA2B"/>
<path opacity="0.5" d="M241.039 361.636C242.256 364.93 244.863 367.519 248.197 368.468L265.604 373.411C267.02 373.673 268.34 372.591 268.495 371.053C268.618 369.83 268.803 368.625 269.038 367.446L241.039 361.636Z" fill="#EEAA2B"/>
<path opacity="0.5" d="M539.958 376.091C539.926 376.87 539.87 377.645 539.794 378.414C539.41 382.188 542.128 385.495 545.659 385.495H568.47C572.616 385.495 575.98 381.879 575.98 377.421V376.091H539.958Z" fill="#EEAA2B"/>
<path d="M480.983 376.091C480.977 374.417 481.088 372.771 481.308 371.157C481.569 369.221 480.226 367.465 478.408 367.418L329.716 363.515C328.095 363.474 326.925 365.136 327.367 366.816C328.139 369.745 328.552 372.828 328.549 376.009C328.549 378.118 328.367 380.18 328.024 382.182C327.667 384.272 329.133 386.208 331.109 386.208H476.616C479.469 386.208 481.628 383.493 481.255 380.451C481.079 379.023 480.985 377.57 480.983 376.091Z" fill="#EEAA2B"/>
<path opacity="0.5" d="M480.982 376.091C480.982 376.063 480.982 376.037 480.982 376.009H328.546C328.546 378.118 328.364 380.18 328.021 382.182C327.663 384.272 329.13 386.208 331.106 386.208H476.613C479.466 386.208 481.625 383.493 481.252 380.451C481.079 379.023 480.985 377.57 480.982 376.091Z" fill="#EEAA2B"/>
<path d="M299.536 311.777L381.71 312.612C381.71 312.612 386.739 312.467 387.425 307.379C388.108 302.29 388.053 280.496 388.053 280.496C388.053 280.496 387.457 276.12 383.557 276.063C381.188 276.029 361.336 274.503 342.026 277.031C326.274 279.093 311.703 286.83 300.656 298.709L294.824 304.983C294.821 304.986 290.886 311.688 299.536 311.777Z" fill="#EAFCFC"/>
<path d="M397.199 283.261V306.111C397.199 309.081 399.316 311.518 401.996 311.635L466.567 314.425C468.051 314.488 469.502 313.769 470.35 312.423C471.508 310.585 471.643 307.565 465.857 303.513C455.796 296.47 430.197 281.234 420.725 279.758C414.696 278.819 406.811 278.412 401.873 278.239C399.316 278.153 397.199 280.426 397.199 283.261Z" fill="#EAFCFC"/>
<path d="M311.712 301.117C311.712 301.117 365.257 294.563 366.403 295.698C367.55 296.833 374.992 315.557 376.344 320.673L313.278 320.033L308.838 312.833L311.712 301.117Z" fill="#B75742"/>
<path d="M425.235 306.263C425.235 306.263 430.162 312.53 431.56 319.299L430.009 322.007L426.898 318.463L425.235 306.263Z" fill="#263D60"/>
<path d="M430.496 289.818C429.552 283.201 423.986 278.44 418.165 281.653C416.857 282.375 415.083 283.841 414.18 285.089C411.735 288.466 411.11 292.634 408.585 295.909C409.512 296.666 410.635 297.46 411.969 298.223L413.541 295.969L412.998 298.784C416.907 300.796 422.423 302.457 429.974 302.41C430.927 297.81 431 293.349 430.496 289.818Z" fill="#666666"/>
<path d="M417.438 304.377C417.438 304.377 411.84 303.996 409.623 306.587C407.409 309.179 414.538 329.687 414.94 332.984C415.341 336.282 411.635 342.862 411.635 342.862C411.635 342.862 427.044 350.614 430.804 347.944C430.804 347.944 430.2 321.502 429.798 319.147C429.396 316.789 426.039 307.208 425.232 306.266C424.432 305.32 417.438 304.377 417.438 304.377Z" fill="#355389"/>
<path d="M419.303 296.347C419.303 296.347 419.274 296.524 419.221 296.827C418.972 298.271 418.01 303.066 417.362 304.384C416.576 305.976 420.048 311.058 423.391 310.437C424.385 310.251 422.549 305.768 422.637 305.295C422.807 304.387 423.036 303.145 423.27 301.874C423.402 301.155 423.537 300.43 423.663 299.746C424.021 297.804 424.311 296.215 424.311 296.215L419.303 296.347Z" fill="#F7A491"/>
<path d="M312.107 302.224C312.055 301.83 311.914 301.458 311.712 301.117L303.753 309.677C303.753 309.677 297.768 319.876 310.929 320.008L314.55 320.046L312.107 302.224Z" fill="#B75742"/>
<path opacity="0.3" d="M419.224 296.824C419.276 296.521 419.306 296.344 419.306 296.344L424.314 296.209C424.314 296.209 424.024 297.798 423.666 299.74C423.54 300.421 423.408 301.143 423.276 301.855C422.502 301.732 421.696 301.329 420.886 300.569C420.004 299.74 419.426 298.743 419.074 297.678C419.133 297.341 419.182 297.047 419.224 296.824Z" fill="#F47458"/>
<path d="M422.672 284.125C422.672 284.125 420.312 283.831 418.834 285.887C417.356 287.942 415.761 294.295 419.435 297.747C423.109 301.203 426.739 297.29 427.279 293.148C427.818 289.002 428.027 283.976 422.672 284.125Z" fill="#F7A491"/>
<path d="M428.367 293.088C427.927 294.002 427.191 294.509 426.722 294.219C426.253 293.929 426.226 292.952 426.666 292.038C427.106 291.123 427.842 290.616 428.311 290.906C428.781 291.193 428.807 292.17 428.367 293.088Z" fill="#F7A491"/>
<path d="M422.936 283.447C422.936 283.447 419.784 289.487 417.529 289.768C415.274 290.048 414.978 293.258 414.978 293.258C414.978 293.258 415.784 285.862 418.019 284.433C420.25 283.005 422.936 283.447 422.936 283.447Z" fill="#666666"/>
<path d="M418.121 291.284C418.306 292.356 417.937 293.34 417.297 293.482C416.658 293.624 415.993 292.867 415.808 291.795C415.623 290.723 415.993 289.74 416.632 289.598C417.271 289.456 417.937 290.212 418.121 291.284Z" fill="#F7A491"/>
<path d="M410.189 333.713C410.177 333.656 412.298 323.965 413.157 321.821C414.013 319.677 417.347 309.724 417.347 309.724L413.034 308.712C413.034 308.712 410.251 316.499 408.984 320.021C407.717 323.542 408.257 330.034 408.201 331.865C408.201 331.891 408.016 333.416 408.013 333.442C407.969 333.643 407.931 333.814 407.911 333.845C407.858 333.933 407.711 334.548 407.706 334.602C407.7 334.655 407.574 334.864 407.521 334.952C407.468 335.04 407.351 336.285 407.327 336.487C407.301 336.689 407.386 337.143 407.386 337.143L407.342 337.978C407.31 338.59 407.899 338.429 407.899 338.429C407.884 338.719 407.978 338.871 408.131 338.924C408.283 338.978 408.462 338.93 408.488 338.943C408.518 338.956 408.53 339.047 408.53 339.047C408.515 339.23 408.705 339.372 408.832 339.397C408.955 339.422 409.178 339.334 409.239 339.255C409.301 339.176 409.345 339.186 409.345 339.186C409.471 339.302 409.952 339.296 410.063 339.129C410.175 338.962 410.274 338.082 410.327 338.004C410.377 337.925 410.485 337.789 410.5 337.663C410.515 337.537 410.911 336.635 410.934 336.452C410.958 336.273 410.711 335.664 410.658 335.302C410.606 334.939 410.274 334.372 410.195 334.211C410.157 334.151 410.166 333.943 410.189 333.713Z" fill="#F48C7F"/>
<path d="M424.432 295.156L420.81 294.954C420.81 294.954 420.822 296.439 422.414 296.578C424.352 296.745 424.432 295.156 424.432 295.156Z" fill="white"/>
<path d="M404.597 298.132L403.286 307.454C403.286 307.454 408.075 318.555 410.934 317.593C413.333 316.786 411.858 306.962 411.858 306.962C411.858 306.962 410.55 301.688 410.943 299.049C411.333 296.407 404.597 298.132 404.597 298.132Z" fill="#F7A491"/>
<path d="M410.94 299.046C411.333 296.407 404.597 298.129 404.597 298.129L404.489 298.901C404.685 299.418 404.926 299.859 405.219 300.2C406.723 301.947 409.075 302.996 411.107 303.075C410.905 301.653 410.779 300.131 410.94 299.046Z" fill="#F47458"/>
<path d="M403.492 284.941C403.301 284.865 401.967 295.559 404.5 298.501C407.034 301.442 411.972 302.407 413.743 300.09C415.702 297.526 415.605 286.035 411.664 283.008C407.723 279.982 403.492 284.941 403.492 284.941Z" fill="#F7A491"/>
<path d="M410.163 277.29C407.116 277.961 405.146 279.966 404.418 280.824C403.034 281 401.155 281.823 399.213 285.291C396.827 289.553 398.589 294.276 401.369 296.593C404.146 298.911 404.108 301.587 404.108 301.587L404.547 300.203C404.87 299.153 405.005 298.044 404.896 296.943C404.832 296.284 404.7 295.569 404.448 294.982C403.779 293.434 405.885 292.407 406.474 291.12C406.929 290.13 406.949 287.86 407.665 286.221L408.518 284.969C408.518 284.969 410.488 283.314 412.418 283.781C414.35 284.248 414.072 276.429 410.163 277.29Z" fill="#3793D8"/>
<path d="M406.345 293.018C406.365 294.323 405.814 295.392 405.116 295.405C404.418 295.417 403.835 294.371 403.814 293.066C403.794 291.76 404.345 290.692 405.043 290.679C405.741 290.666 406.324 291.713 406.345 293.018Z" fill="#F7A491"/>
<path d="M410.459 296.032L414.28 295.818C414.28 295.818 414.268 297.388 412.591 297.533C410.544 297.716 410.459 296.032 410.459 296.032Z" fill="white"/>
<path d="M402.201 307.079C402.55 306.376 403.204 305.903 403.946 305.831C407.157 305.522 415.978 305.515 420.479 313.898C421.188 315.219 421.699 316.654 422.065 318.129L423.012 322.328L399.8 321.518L399.838 318.747C399.606 314.696 400.424 310.657 402.201 307.079Z" fill="#3C8F7C"/>
<path d="M457.342 323.861L460.714 309.147C460.94 308.161 460.38 307.164 459.462 306.921C458.544 306.679 457.617 307.281 457.394 308.268L453.861 323.691L457.342 323.861Z" fill="#666666"/>
<path d="M448.632 323.435C449.585 322.795 450.36 322.269 450.882 321.928C450.92 321.903 453.351 320.648 453.389 320.626C453.732 320.49 454.022 320.386 454.087 320.383C454.271 320.38 455.327 319.999 455.412 319.955C455.497 319.91 455.931 319.914 456.116 319.907C456.301 319.901 458.251 318.82 458.57 318.656C458.893 318.492 459.473 317.883 459.473 317.883L460.746 317.101C461.681 316.528 460.834 315.689 460.834 315.689C461.274 315.415 461.4 315.099 461.324 314.787C461.247 314.475 460.995 314.22 460.984 314.157C460.972 314.097 461.095 313.983 461.095 313.983C461.382 313.823 461.391 313.347 461.3 313.11C461.209 312.87 460.852 312.587 460.67 312.561C460.488 312.536 460.462 312.451 460.462 312.451C460.503 312.12 459.998 311.304 459.638 311.288C459.277 311.272 457.881 312.004 457.711 312C457.544 311.997 457.233 311.953 457.031 312.057C456.828 312.161 455.095 312.416 454.808 312.565C454.521 312.71 453.878 313.75 453.4 314.217C452.922 314.683 452.43 315.825 452.274 316.13C452.213 316.25 451.899 316.449 451.538 316.647C451.483 316.71 440.9 320.822 434.633 322.83L448.632 323.435Z" fill="#F7A491"/>
<path d="M415.638 322.007C414.981 317.773 414.174 313.325 413.306 311.269C411.403 306.764 404.981 304.081 401.832 306.881C400.152 308.375 400.876 315.487 402.307 321.629L415.638 322.007Z" fill="#50BFA5"/>
<path d="M322.347 297.501C322.347 297.501 314.483 297.293 311.811 299.194C309.14 301.095 309.465 320.005 309.465 320.005L312.06 320.535C312.06 320.535 313.002 333.546 315.01 334.227C317.019 334.905 330.226 330.551 332.971 326.887C335.716 323.224 327.159 296.25 327.159 296.25L322.347 297.501Z" fill="#3C8F7C"/>
<path d="M336.329 282.504C337.015 280.218 337.472 273.32 337.622 270.975C337.516 270.804 336.942 269.799 337.003 267.835C337.047 266.447 336.144 264.149 336.971 264.304C337.798 264.458 337.842 266.867 338.337 266.454C338.833 266.038 339.062 260.997 339.812 261.138C340.563 261.28 340.053 266.028 340.498 265.656C340.944 265.284 340.962 260.905 342.023 261.104C343.085 261.302 341.554 266.255 342.123 266.362C342.692 266.47 343.58 263.32 344.434 263.481C345.287 263.642 343.029 267.718 343.293 267.5C343.554 267.283 345.372 265.615 345.674 265.99C346.017 266.413 341.806 271.18 341.795 272.434C342.144 275.612 342.841 281.369 341.888 284.988C340.721 289.415 337.733 299.251 337.733 299.251L331.361 297.621C331.361 297.621 335.516 285.212 336.329 282.504Z" fill="#F7A491"/>
<path d="M339.041 267.387C339.355 267.538 339.616 267.772 339.842 268.036C339.865 268.09 340.663 268.897 340.458 270.209C340.32 269.408 340.161 268.516 339.041 267.387Z" fill="#F48C7F"/>
<path d="M298.293 301.203C298.293 301.203 298.457 300.099 297.604 298.397C297.056 297.306 296.891 295.08 296.32 295.559C295.748 296.038 296.607 297.984 296.076 297.864C295.545 297.744 293.504 293.806 292.985 294.241C292.466 294.677 294.613 298.258 294.138 298.151C293.663 298.044 292.024 294.547 291.291 295.162C290.557 295.777 293.554 299.084 293.161 299.412C292.768 299.74 290.927 297.602 290.337 298.097C289.748 298.592 292.974 300.887 292.695 300.824C292.417 300.761 290.417 300.206 290.323 300.635C290.22 301.117 294.396 302.533 294.871 303.532C295.346 304.529 302.527 314.485 304.58 314.491C306.633 314.497 315.846 307.792 316.515 305.613C317.183 303.435 316.351 301.121 315.008 300.821C313.664 300.518 305.076 307.167 304.653 307.073C304.231 306.978 298.293 301.203 298.293 301.203Z" fill="#F7A491"/>
<path d="M296.162 298.791C295.959 299.09 295.839 299.431 295.763 299.781C295.765 299.841 295.445 300.963 296.227 301.997C295.977 301.225 295.707 300.367 296.162 298.791Z" fill="#F48C7F"/>
<path d="M317.705 314.948C317.705 314.948 325.978 322.02 326.892 323.463C327.576 324.542 325.303 336.705 325.303 336.705C325.303 336.705 322.033 336.815 320.535 335.563C320.535 335.563 321.429 327.158 321.037 326.83C320.644 326.503 311.568 322.161 311.568 322.161L312.143 317.174L317.705 314.948Z" fill="#B75742"/>
<path d="M333.575 289.5C333.575 289.5 335.006 289.787 339.9 295.531L334.212 307.971L328.951 297.627L333.575 289.5Z" fill="#9BC1F9"/>
<path d="M324.347 298.274C324.347 298.274 328.086 297.375 329.394 296.688C330.704 295.997 342.821 326.689 339.765 327.773C333.385 330.037 316.82 336.017 316.82 336.017C316.82 336.017 316.342 334.239 316.943 331.001C317.984 325.396 317.641 312.886 317.421 310.698C317.292 309.412 310.225 313.132 310.225 313.132L307.439 303.435C307.439 303.435 315.506 300.481 318.215 299.544C318.972 299.283 324.347 298.274 324.347 298.274Z" fill="#9BC1F9"/>
<path d="M338.17 317.275C336.657 312.212 326.637 297.653 326.549 297.514L328.185 296.313C328.552 296.89 336.716 309.232 338.314 314.589L338.17 317.275Z" fill="#3C8F7C"/>
<path d="M316.441 326.673L315.403 325.257C315.474 325.197 322.447 319.192 322.634 312.539C322.825 305.815 317.784 299.355 317.734 299.292L319.01 298.122C319.236 298.406 324.52 305.165 324.312 312.593C324.098 320.09 316.752 326.408 316.441 326.673Z" fill="#3C8F7C"/>
<path d="M322.556 277.75C322.556 277.75 325.514 275.388 328.318 279.222C330.552 282.28 330.259 281.319 331.361 282.838C332.467 284.361 334.132 284.49 334.385 287.019C334.637 289.547 333.578 290.067 333.578 290.067C333.578 290.067 334.769 291.921 333.874 294.071C332.98 296.221 330.414 298.28 328.098 298.264C328.098 298.264 324.86 300.692 321.312 300.131C317.767 299.573 318.969 299.434 317.556 299.595C316.145 299.759 312.119 298.119 312.442 295.011C312.442 295.011 309.82 292.309 311.832 289.623C313.846 286.937 314.937 285.064 315.917 281.65C316.902 278.248 320.91 277.145 322.556 277.75Z" fill="#666666"/>
<path d="M326.517 295.213C326.517 295.213 326.84 299.705 327.274 300.08C327.708 300.455 328.324 301.089 327.854 302.224C327.385 303.359 324.822 302.965 323.597 302.489C322.421 302.032 321.591 301.023 321.591 301.023L321.465 293.866L326.517 295.213Z" fill="#F7A491"/>
<path d="M325.042 297.262C324.209 297.054 322.752 296.631 321.479 294.869L321.462 293.866L326.514 295.216C326.514 295.216 326.593 296.313 326.725 297.467C326.042 297.511 325.438 297.359 325.042 297.262Z" fill="#F48C7F"/>
<path d="M319.432 289.941C319.432 289.941 319.051 287.324 317.599 288.009C316.148 288.693 317.69 292.533 318.925 292.258C320.157 291.981 319.432 289.941 319.432 289.941Z" fill="#F7A491"/>
<path d="M323.963 279.758C323.963 279.758 326.309 279.43 327.71 281.259C329.109 283.087 330.98 288.557 329.382 292.665C327.784 296.773 325.15 296.111 324.065 295.84C322.981 295.566 320.828 294.935 319.421 291.429C318.01 287.923 317.954 279.686 323.963 279.758Z" fill="#F7A491"/>
<path d="M371.942 321.622L376.264 343.826L368.804 343.048L365.215 322.741L371.942 321.622Z" fill="#F7A491"/>
<path d="M373.221 322.275L365.213 322.741C365.213 322.741 364.614 316.799 364.479 313.955C364.312 310.506 364.374 306.045 364.767 306.121C365.866 306.329 367.362 306.893 368.297 308.132C371.529 312.42 373.221 322.275 373.221 322.275Z" fill="#5184CE"/>
<path d="M367.957 313.173C368.151 314.217 373.221 343.237 373.221 343.237C361.213 350.315 352.049 344.274 352.049 344.274C352.049 344.274 352.507 324.765 351.891 322.061C351.483 320.27 350.008 308.479 351.082 308.082C352.46 307.571 354.542 306.824 356.281 306.53C357.764 306.281 363.556 305.862 364.612 306.181C364.612 306.181 367.148 308.785 367.957 313.173Z" fill="#EAFCFC"/>
<path d="M363.652 285.486C363.652 285.486 368.508 285.408 368.107 289.73C368.107 289.73 371.719 291.24 369.312 294.743C369.312 294.743 371.881 298.507 367.409 302.123C367.409 302.123 366.221 307.18 361.157 304.762C361.157 304.762 359.658 305.963 357.585 304.355C355.512 302.747 355.242 301.795 355.242 301.795C355.242 301.795 350.659 300.862 351.29 296.328C351.29 296.328 348.882 294.122 352.518 291.35C352.518 291.35 352.451 285.133 357.365 285.972C357.365 285.975 360.236 281.23 363.652 285.486Z" fill="#3793D8"/>
<path d="M356.046 295.666C355.914 296.77 355.245 297.586 354.553 297.492C353.861 297.397 353.404 296.426 353.536 295.323C353.668 294.219 354.336 293.403 355.028 293.497C355.723 293.592 356.178 294.563 356.046 295.666Z" fill="#F7A491"/>
<path d="M367.447 299.037C367.022 300.049 366.16 300.619 365.523 300.31C364.887 300.001 364.714 298.929 365.142 297.914C365.567 296.902 366.429 296.332 367.066 296.641C367.702 296.949 367.875 298.021 367.447 299.037Z" fill="#F7A491"/>
<path d="M361.597 302.397C361.591 302.476 362.004 305.317 362.221 306.817C362.303 307.379 362.004 307.921 361.512 308.116C360.189 308.643 357.615 309.317 355.993 307.486C355.846 307.319 355.776 307.089 355.799 306.858L356.471 300.213L361.597 302.397Z" fill="#F7A491"/>
<path d="M361.996 305.26C360.591 305.884 356.536 305.342 356.231 302.596L356.471 300.216L361.597 302.397C361.594 302.435 361.872 304.393 361.996 305.26Z" fill="#F48C7F"/>
<path d="M362.908 288.86C362.908 288.86 360.77 288.362 358.729 289.724C356.688 291.086 353.375 296.448 356.146 301.105C358.917 305.764 363.62 303.482 365.28 299.793C366.934 296.105 367.638 290.61 362.908 288.86Z" fill="#F7A491"/>
<path d="M361.585 300.389L358.741 300.213C358.741 300.213 358.744 301.379 359.993 301.493C361.515 301.634 361.585 300.389 361.585 300.389Z" fill="white"/>
<path d="M366.555 291.473C366.555 291.473 364.485 290.282 362.943 290.436C361.4 290.594 356.374 294.522 355.641 293.863C354.911 293.204 355.852 289.73 356.436 289.225C357.019 288.721 359.348 287.205 359.547 287.176C359.747 287.148 361.861 287.189 362.221 287.29C362.585 287.391 365.198 288.731 365.198 288.731L366.555 291.473Z" fill="#3793D8"/>
<path d="M336.466 345.87C336.51 345.737 336.616 345.731 336.727 345.724C337.789 345.655 338.844 345.567 339.894 345.362C340.07 345.327 340.24 345.28 340.399 345.204C340.689 345.069 340.976 345.062 341.275 345.141C341.437 345.182 341.601 345.185 341.765 345.182C342.299 345.16 343.803 344.552 344.58 344.381C344.759 344.34 344.894 344.192 344.935 344C345.609 340.702 347.043 333.309 347.187 330.891C347.372 327.795 348.946 313.816 348.946 313.816L354.295 315.226C354.295 315.226 352.413 325.569 351.955 330.57C351.6 334.432 348.266 342.711 347.213 345.094C346.718 346.859 345.489 346.948 345.205 346.995C345.043 347.02 344.894 347.115 344.791 347.25C344.604 347.499 344.39 347.717 344.14 347.9C343.956 348.032 343.815 348.206 343.698 348.404C343.483 348.767 343.293 349.142 343.102 349.52C342.976 349.769 342.841 349.854 342.642 349.801C342.431 349.747 342.325 349.583 342.319 349.306C342.313 348.899 342.425 348.527 342.604 348.171C342.774 347.84 342.753 347.651 342.536 347.358C342.413 347.19 342.284 347.027 342.123 346.894C341.959 346.762 341.789 346.661 341.574 346.699C341.196 346.815 340.815 346.91 340.425 346.97L340.105 347.052C340.094 347.055 339.932 347.099 339.932 347.099C339.906 347.109 339.343 347.194 339.149 347.2C338.994 347.206 338.742 347.225 338.531 347.244C338.337 347.26 337.927 347.165 337.912 347.165C337.724 347.168 337.554 347.099 337.411 346.97C337.352 346.916 337.293 346.856 337.32 346.762C337.343 346.673 337.408 346.636 337.487 346.617C337.613 346.588 338.27 346.478 338.261 346.45C338.064 346.456 337.452 346.462 337.258 346.462C336.994 346.462 336.762 346.371 336.575 346.166C336.51 346.081 336.422 346.002 336.466 345.87Z" fill="#F7A491"/>
<path d="M345.375 322.224L353.125 326.254C353.125 326.254 354.342 320.134 355.251 316.351C356.031 313.097 352.169 307.312 350.885 308.104C348.005 309.875 345.375 322.224 345.375 322.224Z" fill="#5184CE"/>
<path d="M397.75 311.446L466.661 314.598C466.661 314.598 460.649 336.219 460.503 337.297C460.356 338.376 437.742 351.642 432.059 351.484C426.376 351.327 413.125 346.213 410.271 345.311C407.421 344.41 400.014 338.196 400.457 334.375C400.902 330.551 397.75 311.446 397.75 311.446Z" fill="#EEAA2B"/>
<path d="M417.579 322.414H399.09C398.633 322.414 398.263 322.016 398.263 321.525V319.806C398.263 319.315 398.633 318.917 399.09 318.917H417.579C418.036 318.917 418.406 319.315 418.406 319.806V321.525C418.406 322.013 418.036 322.414 417.579 322.414Z" fill="#EEAA2B"/>
<path d="M425.581 281.133L434.918 285.263L434.384 283.198L430.904 281.133C430.904 281.133 428.053 280.537 427.775 280.376C427.493 280.218 425.581 281.133 425.581 281.133Z" fill="#EEAA2B"/>
<path opacity="0.6" d="M470.092 307.574L397.199 300.865V306.108C397.199 309.078 399.316 311.515 401.996 311.632L466.567 314.422C468.051 314.485 469.502 313.766 470.35 312.42C471.08 311.266 471.402 309.636 470.092 307.574Z" fill="#C5DDF9"/>
<path opacity="0.7" d="M397.199 300.865V300.112L469.831 307.189L470.092 307.574L397.199 300.865Z" fill="#C5DDF9"/>
<path opacity="0.2" d="M413.984 312.152L420.626 312.439L426.08 303.523L419.623 302.93L413.984 312.152Z" fill="white"/>
<path opacity="0.2" d="M425.769 312.662L431.077 303.983L428.622 303.759L423.244 312.552L425.769 312.662Z" fill="white"/>
<path d="M298.452 311.726L381.713 312.612L382.458 340.983C382.458 340.983 372.731 356.195 371.558 356.034C370.385 355.876 345.516 351.573 343.285 351.734C341.053 351.894 321.559 341.607 320.638 341.812C319.717 342.017 313.644 338.511 313.644 338.511L303.744 330.992L293.93 320.131L298.452 311.726Z" fill="#EEAA2B"/>
<path d="M315.303 320.664H296.815C296.357 320.664 295.988 320.267 295.988 319.775V318.057C295.988 317.565 296.357 317.168 296.815 317.168H315.303C315.761 317.168 316.13 317.565 316.13 318.057V319.775C316.13 320.267 315.761 320.664 315.303 320.664Z" fill="#EEAA2B"/>
<path d="M327.622 291.149L324.74 291.745C324.74 291.745 325.016 292.908 326.291 292.684C327.845 292.416 327.622 291.149 327.622 291.149Z" fill="white"/>
<path d="M318.696 288.182C318.696 288.182 325.2 284.979 325.846 279.96C326.491 274.941 320.5 279.736 320.5 279.736L318.078 282.236L318.696 288.182Z" fill="#666666"/>
<path d="M399.562 310.812C399.562 310.812 400.773 311.71 402.304 311.647C402.304 311.647 400.269 312.316 400.207 312.262C400.149 312.209 399.122 311.323 399.137 311.304C399.155 311.288 399.562 310.812 399.562 310.812Z" fill="#EEAA2B"/>
<path d="M405.841 278.409L413.981 278.964C413.981 278.964 412.647 276.593 412.084 276.593C411.518 276.593 407.794 276.593 407.794 276.593L405.841 278.409Z" fill="#EEAA2B"/>
<path d="M733.477 410.543H73.9169C72.4477 410.543 71.2543 408.939 71.2543 406.962C71.2543 404.985 72.4477 403.38 73.9169 403.38H733.477C734.949 403.38 736.139 404.985 736.139 406.962C736.139 408.942 734.946 410.543 733.477 410.543Z" fill="#666666"/>
<g opacity="0.3">
<path d="M65.0434 412.556H728.759C783.773 432.599 755.461 492.911 709.511 505.136C660.047 518.297 738.591 563.812 662.396 578.585C612.649 588.232 545.225 577.456 512.291 598.221C473.596 622.619 409.318 652.316 289.601 629.239C197.267 611.442 247.419 577.13 96.3259 566.8C18.6328 561.488 33.6465 516.037 40.8895 506.646C47.1999 498.466 88.9422 485.49 30.9282 467.621C-54.1398 441.42 63.0376 413.038 65.0434 412.556Z" fill="#FFF7E8"/>
<path d="M265.295 479.928C265.295 479.928 350.381 534.003 400.984 533.83C451.588 533.656 506.714 498.211 578.727 467.941C659.429 434.017 554.051 432.593 547.969 432.314C541.888 432.034 332.059 435.753 328.561 437.583C325.062 439.415 269.037 462.87 269.037 462.87L265.295 479.928Z" fill="#FFE3B0"/>
<path d="M221.227 490.807C293.871 483.219 402.87 415.03 485.891 415.03C568.912 415.03 586.788 431.34 617.921 427.891C649.054 424.443 690.849 415.03 690.849 415.03L73.9167 413.886C73.9167 413.886 148.584 498.395 221.227 490.807Z" fill="#D6C5A7"/>
<path d="M550.491 490.807C477.848 483.219 368.849 415.03 285.827 415.03C202.806 415.03 184.93 431.34 153.797 427.891C122.664 424.443 80.8694 415.03 80.8694 415.03L697.802 413.886C697.805 413.886 623.135 498.395 550.491 490.807Z" fill="#E3EEFF"/>
<path d="M73.9167 413.886C73.9167 413.886 153.563 457.316 256.257 459.983C290.742 460.879 431.947 442.918 550.855 428.806C555.854 428.213 566.66 422.405 571.722 421.808C628.014 415.166 680.474 413.762 697.441 413.333L73.9167 413.886Z" fill="#E3FFF8"/>
<path d="M724.011 412.351C724.011 412.351 693.054 436.732 673.574 440.47C654.095 444.209 672.454 429.358 672.454 429.358C672.454 429.358 637.896 451.762 625.217 449.743C613.593 447.89 625.217 434.004 625.217 434.004C625.217 434.004 612.124 441.694 596.248 441.694C580.369 441.694 608.52 412.899 608.52 412.899L724.011 412.351Z" fill="#FFFBF3"/>
<path opacity="0.5" d="M393.392 584.233C391.879 587.537 385.985 590.003 378.939 590.003C377.646 590.003 376.391 589.919 375.194 589.763C371.716 593.494 364.168 596.081 355.415 596.081C353.152 596.081 350.97 595.908 348.917 595.588C344.205 599.502 335.645 602.12 325.866 602.12C314.23 602.12 304.322 598.415 300.565 593.229C297.909 593.972 294.847 594.397 291.589 594.397C281.391 594.397 273.124 590.25 273.124 585.134C273.124 584.831 273.157 584.53 273.212 584.235H393.392V584.233Z" fill="white"/>
<path opacity="0.5" d="M557.224 526.437C557.954 528.029 560.793 529.216 564.185 529.216C564.81 529.216 565.411 529.176 565.989 529.101C567.663 530.898 571.299 532.144 575.513 532.144C576.604 532.144 577.654 532.06 578.642 531.905C580.912 533.79 585.032 535.051 589.741 535.051C595.345 535.051 600.116 533.266 601.925 530.77C603.204 531.127 604.678 531.333 606.247 531.333C611.159 531.333 615.138 529.335 615.138 526.873C615.138 526.727 615.124 526.583 615.097 526.44H557.224V526.437Z" fill="white"/>
<path opacity="0.5" d="M455.617 547.138C454.723 549.093 451.234 550.553 447.064 550.553C446.298 550.553 445.556 550.503 444.847 550.411C442.788 552.62 438.322 554.15 433.144 554.15C431.804 554.15 430.513 554.048 429.299 553.857C426.511 556.174 421.447 557.722 415.658 557.722C408.773 557.722 402.908 555.53 400.685 552.459C399.114 552.899 397.301 553.151 395.372 553.151C389.337 553.151 384.443 550.697 384.443 547.668C384.443 547.488 384.461 547.31 384.496 547.135H455.617V547.138Z" fill="white"/>
<path opacity="0.5" d="M594.163 570.11C592.952 572.751 588.242 574.722 582.609 574.722C581.574 574.722 580.571 574.656 579.615 574.531C576.835 577.513 570.804 579.579 563.81 579.579C562.001 579.579 560.259 579.44 558.617 579.184C554.851 582.312 548.01 584.404 540.193 584.404C530.894 584.404 522.974 581.442 519.974 577.298C517.851 577.893 515.405 578.232 512.798 578.232C504.649 578.232 498.04 574.918 498.04 570.828C498.04 570.585 498.063 570.346 498.11 570.11H594.163V570.11Z" fill="white"/>
<path opacity="0.5" d="M206.694 537.852C207.299 539.169 209.647 540.151 212.454 540.151C212.97 540.151 213.468 540.118 213.946 540.056C215.333 541.542 218.339 542.573 221.825 542.573C222.726 542.573 223.597 542.504 224.415 542.376C226.291 543.935 229.702 544.978 233.599 544.978C238.235 544.978 242.182 543.503 243.677 541.436C244.736 541.731 245.956 541.901 247.255 541.901C251.319 541.901 254.612 540.248 254.612 538.209C254.612 538.089 254.601 537.97 254.577 537.852H206.694Z" fill="white"/>
<path d="M384.949 496.311V496.967H380.498V496.311H384.949Z" fill="#EEAA2B"/>
<path d="M389.885 481.43V497.032C389.885 498.063 388.22 498.899 386.164 498.899H379.69C377.634 498.899 375.968 498.063 375.968 497.032V481.429C375.968 480.397 377.634 479.562 379.69 479.562H386.164C388.22 479.563 389.885 480.399 389.885 481.43Z" fill="#F47458"/>
<path d="M382.927 479.563H386.66C388.44 479.563 389.885 479.957 389.885 480.444V498.017C389.885 498.504 388.874 498.899 387.091 498.899H382.927V479.563Z" fill="#B75742"/>
<path d="M383.546 487.241V491.746H381.901V487.241H383.546Z" fill="#666666"/>
<path d="M403.143 481.456V492.809C403.143 493.855 401.453 494.703 399.369 494.703H392.999C390.915 494.703 389.225 493.855 389.225 492.809V481.456C389.225 480.41 390.915 479.563 392.999 479.563H399.369C401.451 479.563 403.143 480.41 403.143 481.456Z" fill="#355389"/>
<path d="M396.184 479.563H399.917C401.697 479.563 403.143 479.872 403.143 480.253V494.014C403.143 494.395 401.7 494.704 399.917 494.704H396.184V479.563Z" fill="#5184CE"/>
<path d="M398.207 492.676V493.191H393.756V492.676H398.207Z" fill="#EEAA2B"/>
<path d="M396.804 485.574V489.102H395.159V485.574H396.804Z" fill="#666666"/>
<path d="M330.33 479.314H329.663V475.918H330.33V479.314Z" fill="#3793D8"/>
<path d="M410.953 479.314H410.286V475.918H410.953V479.314Z" fill="#3793D8"/>
<path d="M381.859 486.548H335.894C333.639 486.548 331.813 485.632 331.813 484.5V481.614C331.813 480.482 333.639 479.566 335.894 479.566H381.859C384.114 479.566 385.941 480.482 385.941 481.614V484.5C385.941 485.632 384.114 486.548 381.859 486.548Z" fill="#B75742"/>
<path d="M385.941 483.057V484.93C385.941 485.823 384.836 486.548 383.475 486.548H334.276C332.915 486.548 331.81 485.824 331.81 484.93V483.057H385.941Z" fill="#91342A"/>
<path d="M340.525 484.072H338.686V481.839H340.525V484.072Z" fill="#EEAA2B"/>
<path d="M379.068 484.072H377.229V481.839H379.068V484.072Z" fill="#EEAA2B"/>
<path d="M364.447 483.369H351.835V482.544H364.447V483.369Z" fill="#666666"/>
<path d="M373.766 493.53H343.988C341.569 493.53 339.607 492.546 339.607 491.332V488.748C339.607 487.534 341.569 486.55 343.988 486.55H373.766C376.185 486.55 378.147 487.534 378.147 488.748V491.332C378.147 492.546 376.185 493.53 373.766 493.53Z" fill="#4E9B87"/>
<path d="M378.147 490.039V491.912C378.147 492.805 377.361 493.53 376.391 493.53H341.361C340.39 493.53 339.604 492.806 339.604 491.912V490.039H378.147Z" fill="#3C8F7C"/>
<path d="M344.762 491.054H343.454V488.821H344.762V491.054Z" fill="#EEAA2B"/>
<path d="M408.007 479.572L376.121 479.581L375.608 486.707H408.007C411.934 486.707 415.118 485.109 415.118 483.139C415.121 481.17 411.937 479.572 408.007 479.572Z" fill="#FAE0B2"/>
<path d="M382.927 483.141C382.927 481.171 379.994 479.574 376.376 479.574C372.757 479.574 369.825 481.171 369.825 483.141C369.825 485.111 372.757 486.709 376.376 486.709C379.994 486.709 382.927 485.111 382.927 483.141Z" fill="#EEAA2B"/>
<path d="M389.684 479.238L389.678 479.241C389.385 479.356 389.326 479.565 389.54 479.718C391.699 481.248 392.3 482.876 391.326 484.562C390.784 485.501 389.872 486.216 389.359 486.57C389.15 486.713 389.194 486.913 389.458 487.031L389.467 487.034C389.772 487.169 390.241 487.144 390.482 486.979C391.059 486.582 392.039 485.81 392.643 484.784C393.423 483.456 393.681 481.452 390.672 479.316C390.444 479.153 389.995 479.117 389.684 479.238Z" fill="#F47458"/>
<path d="M401.337 479.238L401.331 479.241C401.038 479.356 400.979 479.565 401.196 479.718C403.354 481.248 403.956 482.876 402.982 484.562C402.44 485.501 401.528 486.216 401.014 486.57C400.806 486.713 400.85 486.913 401.114 487.031L401.123 487.034C401.428 487.169 401.897 487.144 402.138 486.979C402.715 486.582 403.695 485.81 404.299 484.784C405.079 483.456 405.337 481.452 402.328 479.316C402.099 479.153 401.651 479.117 401.337 479.238Z" fill="#F47458"/>
<path d="M381.795 483.778C381.446 484.902 380.235 485.468 379.282 485.746C377.862 486.158 376.038 486.217 374.399 485.901C372.842 485.601 371.599 484.918 371.153 484.118C370.757 483.406 371.051 482.682 371.98 482.08C373.543 481.068 375.939 481.228 377.109 481.481C378.17 481.711 378.965 482.257 379.138 482.87C379.276 483.366 378.83 483.846 377.971 484.121C377.106 484.397 376.047 484.4 375.2 484.127C374.584 483.928 373.974 483.534 374.552 482.791L375.021 482.882C374.651 483.359 374.798 483.696 375.473 483.915C376.15 484.134 377.003 484.133 377.698 483.909C378.39 483.688 378.748 483.303 378.639 482.906C378.493 482.377 377.813 481.91 376.909 481.714C375.871 481.489 373.751 481.346 372.379 482.235C371.314 482.925 371.388 483.603 371.637 484.05C372.036 484.764 373.188 485.398 374.578 485.665C376.074 485.954 377.739 485.902 379.027 485.527C380.258 485.17 381.044 484.55 381.296 483.738C381.625 482.68 381.229 481.837 380.123 481.231C378.044 480.094 373.637 480.11 372.88 480.122C373.156 480.028 373.443 479.944 373.742 479.872C373.754 479.872 373.769 479.872 373.781 479.872C375.121 479.872 378.525 479.985 380.493 481.059C381.71 481.726 382.147 482.639 381.795 483.778Z" fill="#F47458"/>
<path d="M373.25 491.054H371.942V488.821H373.25V491.054Z" fill="#EEAA2B"/>
<path d="M362.843 490.351H353.864V489.526H362.843V490.351Z" fill="#666666"/>
<path d="M350.992 493.829L335.835 479.411L336.269 479.297L351.425 493.715L350.992 493.829Z" fill="#666666"/>
<path d="M368.012 493.935L367.578 493.82L383.139 479.042L383.572 479.157L368.012 493.935Z" fill="#666666"/>
<path d="M400.037 494.905L399.583 494.813L412.193 479.31L412.647 479.402L400.037 494.905Z" fill="#666666"/>
<path d="M384.938 499.038L384.476 498.956L398.304 479.32L398.766 479.401L384.938 499.038Z" fill="#666666"/>
<path d="M414.057 479.583H326.693V479.122H414.057V479.583Z" fill="#3793D8"/>
<path d="M265.295 430.52C265.295 430.52 331.96 424.97 332.757 425.211C333.558 425.452 342.191 444.139 342.191 444.139C342.191 444.139 287.065 449.111 286.171 449.111C285.279 449.111 273.289 444.299 273.128 443.979C272.966 443.658 265.295 430.52 265.295 430.52Z" fill="#666666"/>
<path d="M468.643 425.773C470.241 425.694 550.972 426.56 550.972 426.56L544.896 435.878C544.896 435.878 533.706 444.369 527.792 444.214C521.877 444.06 486.698 446.921 480.628 444.808C474.558 442.696 469.121 444.38 466.244 439.327C463.368 434.273 461.122 433.709 463.365 430.663C465.605 427.616 468.643 425.773 468.643 425.773Z" fill="#666666"/>
<path d="M298.956 413.403C314.132 413.403 326.435 419.578 326.435 427.194C326.435 434.81 314.132 440.985 298.956 440.985C283.779 440.985 271.477 434.81 271.477 427.194C271.477 419.578 283.779 413.403 298.956 413.403Z" fill="#666666"/>
<path d="M298.956 417.599C309.515 417.599 318.075 421.895 318.075 427.194C318.075 432.493 309.515 436.789 298.956 436.789C288.397 436.789 279.837 432.493 279.837 427.194C279.837 421.895 288.397 417.599 298.956 417.599Z" fill="#9E9DA2"/>
<path d="M298.956 420.777C306.017 420.777 311.741 423.65 311.741 427.194C311.741 430.738 306.017 433.611 298.956 433.611C291.895 433.611 286.171 430.738 286.171 427.194C286.171 423.65 291.895 420.777 298.956 420.777Z" fill="#D8D9DD"/>
<path d="M510.517 413.403C525.694 413.403 537.997 419.578 537.997 427.194C537.997 434.81 525.694 440.985 510.517 440.985C495.341 440.985 483.038 434.81 483.038 427.194C483.038 419.578 495.341 413.403 510.517 413.403Z" fill="#666666"/>
<path d="M510.517 417.599C521.076 417.599 529.636 421.895 529.636 427.194C529.636 432.493 521.076 436.789 510.517 436.789C499.958 436.789 491.398 432.493 491.398 427.194C491.398 421.895 499.958 417.599 510.517 417.599Z" fill="#9E9DA2"/>
<path d="M497.732 427.194C497.732 423.65 503.456 420.777 510.517 420.777C517.578 420.777 523.302 423.65 523.302 427.194C523.302 430.738 517.578 433.611 510.517 433.611C503.456 433.61 497.732 430.738 497.732 427.194Z" fill="#D8D9DD"/>
<path d="M573.604 440.318C571.282 448.004 563.772 449.618 541.556 451.846C517.045 454.306 485.924 462.327 485.924 462.327C485.924 462.327 432.848 475.373 419.846 476.871C406.844 478.368 374.869 477.94 348.014 477.833C321.157 477.726 305.384 473.983 291.742 468.637C278.101 463.291 254.44 459.226 254.44 459.226L250.141 458.84C245.722 458.445 242.502 456.516 242.502 454.263V435.193C242.502 433.033 245.402 431.144 249.563 430.594L265.096 428.536C266.36 428.427 267.538 428.877 267.676 429.519C269.377 437.32 282.822 443.25 298.853 443.24C315.899 443.23 329.878 436.202 329.869 427.65C329.869 426.678 329.687 425.727 329.347 424.805C328.995 423.853 330.452 422.975 332.382 422.975H475.341C478.118 422.975 480.276 424.199 479.909 425.58C479.733 426.245 479.64 426.923 479.634 427.612C479.584 436.059 493.199 443.062 510.034 443.236C527.484 443.417 541.741 436.373 541.741 427.659C541.741 427.082 541.68 426.513 541.556 425.952C541.21 424.365 543.659 422.975 546.844 422.975H567.399C571.138 422.975 574.167 424.495 574.167 426.37V436.359C574.167 437.683 574 439.008 573.604 440.318Z" fill="#EEAA2B"/>
<path d="M243.408 452.007H260.34C261.792 452.007 262.774 451.265 262.211 450.594L260.308 448.317C258.496 446.147 254.261 444.735 249.572 444.735H243.408C242.203 444.735 241.224 445.226 241.224 445.831V450.911C241.224 451.517 242.2 452.007 243.408 452.007Z" fill="#CF283C"/>
<path d="M546.671 448.477C555.995 447.761 566.734 443.331 566.734 443.331C569.3 441.947 567.18 439.701 563.42 439.82L545.24 440.396C541.463 440.516 538.243 441.812 537.19 443.636C535.422 446.699 536.926 449.226 546.671 448.477Z" fill="#EAFCFC"/>
<path d="M242.599 434.483C241.434 434.497 240.607 433.909 241.036 433.366C242.253 431.829 244.859 430.619 248.194 430.178L265.6 427.871C267.016 427.749 268.336 428.254 268.491 428.972C268.814 430.45 269.518 431.867 270.544 433.204C270.893 433.657 270.236 434.144 269.268 434.156L242.599 434.483Z" fill="#EEAA2B"/>
<path d="M541.888 430.888C540.565 430.905 539.545 430.323 539.715 429.664C539.903 428.933 539.999 428.187 539.999 427.431C539.999 426.791 539.929 426.159 539.794 425.536C539.41 423.775 542.128 422.232 545.659 422.232H568.47C572.616 422.232 575.979 423.919 575.979 426V428.961C575.979 429.801 574.645 430.487 572.971 430.507L541.888 430.888Z" fill="#EEAA2B"/>
<path opacity="0.5" d="M485.962 457.91C485.66 457.994 455.442 466.311 435.402 470.968C415.561 475.579 393.413 475.089 392.46 475.066C389.915 475.095 336.927 475.672 320.635 473.124C304.225 470.558 282.851 458.868 281.951 458.371L281.702 458.234L287.449 444.704L288.065 444.721C304.779 445.195 317.576 442.963 325.063 438.267C330.725 434.718 331.423 430.969 331.429 430.932L331.485 430.61L391.751 429.833V429.832L392.445 429.825L393.187 429.814V429.817L477.159 428.996L477.17 429.358C477.59 443.049 486.217 457.346 486.305 457.488L486.475 457.769L485.962 457.91ZM332.784 431.316C332.493 432.331 331.224 435.544 326.233 438.688C320.855 442.078 309.967 445.984 288.596 445.459L283.259 458.021C285.734 459.355 305.952 470.073 321.06 472.435C336.176 474.799 385.273 474.412 391.745 474.351V430.556L332.784 431.316ZM475.742 429.732L393.184 430.539V474.357C397.07 474.412 416.899 474.471 434.795 470.312C453.36 465.999 480.701 458.53 484.759 457.416C483.557 455.354 476.261 442.349 475.742 429.732Z" fill="#EEAA2B"/>
<path opacity="0.5" d="M241.04 433.366C242.256 431.828 244.863 430.62 248.197 430.178L265.604 427.871C267.02 427.749 268.34 428.253 268.495 428.971C268.618 429.542 268.803 430.104 269.038 430.654L241.04 433.366Z" fill="#EEAA2B"/>
<path opacity="0.5" d="M539.958 426.62C539.926 426.257 539.871 425.895 539.794 425.536C539.41 423.775 542.128 422.232 545.659 422.232H568.47C572.616 422.232 575.98 423.919 575.98 425.999V426.62H539.958Z" fill="#EEAA2B"/>
<path d="M480.983 426.62C480.977 427.402 481.088 428.169 481.308 428.923C481.569 429.826 480.226 430.645 478.408 430.667L329.716 432.489C328.095 432.508 326.925 431.733 327.367 430.948C328.139 429.582 328.552 428.143 328.549 426.659C328.549 425.674 328.367 424.712 328.024 423.778C327.667 422.803 329.133 421.899 331.109 421.899H476.616C479.469 421.899 481.628 423.166 481.255 424.586C481.079 425.252 480.985 425.93 480.983 426.62Z" fill="#EEAA2B"/>
<path opacity="0.5" d="M480.982 426.62C480.982 426.634 480.982 426.645 480.982 426.659H328.546C328.546 425.674 328.364 424.712 328.021 423.778C327.664 422.803 329.13 421.899 331.106 421.899H476.613C479.466 421.899 481.625 423.166 481.252 424.586C481.079 425.252 480.985 425.93 480.982 426.62Z" fill="#EEAA2B"/>
<path d="M299.536 456.632L381.71 456.242C381.71 456.242 386.739 456.31 387.425 458.684C388.109 461.059 388.053 471.229 388.053 471.229C388.053 471.229 387.458 473.271 383.558 473.297C381.188 473.314 361.336 474.026 342.026 472.846C326.274 471.884 311.703 468.273 300.657 462.73L294.824 459.803C294.821 459.801 290.886 456.673 299.536 456.632Z" fill="#EAFCFC"/>
<path d="M397.199 469.939V459.276C397.199 457.89 399.316 456.753 401.996 456.698L466.567 455.396C468.051 455.367 469.502 455.702 470.35 456.33C471.508 457.188 471.643 458.597 465.857 460.488C455.796 463.775 430.197 470.885 420.725 471.573C414.696 472.012 406.811 472.201 401.873 472.282C399.316 472.322 397.199 471.261 397.199 469.939Z" fill="#EAFCFC"/>
<path d="M311.712 461.606C311.712 461.606 365.257 464.665 366.403 464.135C367.55 463.605 374.992 454.868 376.344 452.48L313.278 452.779L308.838 456.139L311.712 461.606Z" fill="#B75742"/>
<path d="M425.235 459.205C425.235 459.205 430.162 456.28 431.56 453.122L430.009 451.858L426.898 453.512L425.235 459.205Z" fill="#263D60"/>
<path d="M430.496 466.879C429.552 469.967 423.986 472.188 418.165 470.689C416.858 470.352 415.083 469.668 414.18 469.086C411.735 467.51 411.11 465.565 408.585 464.037C409.512 463.683 410.635 463.313 411.969 462.957L413.541 464.009L412.999 462.695C416.907 461.756 422.423 460.981 429.974 461.003C430.927 463.149 431 465.231 430.496 466.879Z" fill="#666666"/>
<path d="M417.438 460.085C417.438 460.085 411.84 460.263 409.623 459.054C407.409 457.844 414.538 448.274 414.94 446.736C415.341 445.197 411.635 442.126 411.635 442.126C411.635 442.126 427.044 438.509 430.804 439.755C430.804 439.755 430.2 452.094 429.798 453.193C429.396 454.293 426.039 458.764 425.232 459.204C424.432 459.645 417.438 460.085 417.438 460.085Z" fill="#355389"/>
<path d="M419.303 463.832C419.303 463.832 419.274 463.749 419.221 463.608C418.972 462.934 418.01 460.697 417.362 460.082C416.576 459.339 420.048 456.967 423.391 457.257C424.385 457.344 422.549 459.436 422.637 459.657C422.807 460.08 423.036 460.66 423.271 461.253C423.403 461.588 423.537 461.927 423.664 462.246C424.021 463.152 424.312 463.894 424.312 463.894L419.303 463.832Z" fill="#F7A491"/>
<path d="M312.108 461.09C312.055 461.273 311.914 461.447 311.712 461.606L303.753 457.612C303.753 457.612 297.768 452.853 310.929 452.791L314.55 452.773L312.108 461.09Z" fill="#B75742"/>
<path opacity="0.3" d="M419.224 463.61C419.276 463.751 419.306 463.833 419.306 463.833L424.314 463.897C424.314 463.897 424.024 463.155 423.666 462.249C423.54 461.931 423.408 461.594 423.276 461.262C422.502 461.319 421.696 461.508 420.886 461.862C420.004 462.249 419.426 462.714 419.074 463.211C419.133 463.369 419.183 463.505 419.224 463.61Z" fill="#F47458"/>
<path d="M422.672 469.535C422.672 469.535 420.312 469.672 418.834 468.713C417.356 467.754 415.761 464.79 419.435 463.179C423.109 461.566 426.739 463.392 427.279 465.325C427.818 467.26 428.027 469.605 422.672 469.535Z" fill="#F7A491"/>
<path d="M428.367 465.353C427.927 464.927 427.191 464.69 426.722 464.825C426.253 464.96 426.227 465.416 426.666 465.843C427.106 466.27 427.842 466.507 428.311 466.371C428.781 466.237 428.807 465.781 428.367 465.353Z" fill="#F7A491"/>
<path d="M422.936 469.852C422.936 469.852 419.784 467.033 417.529 466.902C415.274 466.771 414.978 465.274 414.978 465.274C414.978 465.274 415.784 468.725 418.019 469.391C420.25 470.058 422.936 469.852 422.936 469.852Z" fill="#666666"/>
<path d="M418.121 466.195C418.306 465.694 417.937 465.235 417.297 465.169C416.658 465.103 415.993 465.456 415.808 465.956C415.623 466.456 415.993 466.915 416.632 466.982C417.271 467.048 417.937 466.695 418.121 466.195Z" fill="#F7A491"/>
<path d="M410.189 446.396C410.178 446.422 412.298 450.945 413.157 451.945C414.013 452.945 417.347 457.59 417.347 457.59L413.034 458.062C413.034 458.062 410.251 454.428 408.984 452.785C407.717 451.142 408.257 448.113 408.201 447.258C408.201 447.246 408.016 446.534 408.014 446.522C407.97 446.428 407.931 446.349 407.911 446.334C407.858 446.293 407.711 446.006 407.706 445.981C407.7 445.956 407.574 445.859 407.521 445.818C407.468 445.776 407.351 445.195 407.327 445.101C407.301 445.007 407.386 444.795 407.386 444.795L407.342 444.405C407.31 444.12 407.899 444.195 407.899 444.195C407.885 444.059 407.978 443.989 408.131 443.964C408.283 443.939 408.462 443.961 408.489 443.955C408.518 443.949 408.53 443.906 408.53 443.906C408.515 443.821 408.706 443.755 408.832 443.743C408.955 443.731 409.178 443.773 409.239 443.809C409.301 443.846 409.345 443.842 409.345 443.842C409.471 443.787 409.952 443.79 410.063 443.868C410.175 443.946 410.274 444.357 410.327 444.393C410.377 444.43 410.486 444.493 410.5 444.552C410.515 444.611 410.911 445.032 410.934 445.117C410.958 445.201 410.711 445.485 410.659 445.654C410.606 445.823 410.274 446.088 410.195 446.163C410.157 446.191 410.166 446.288 410.189 446.396Z" fill="#F48C7F"/>
<path d="M424.432 464.388L420.81 464.482C420.81 464.482 420.822 463.789 422.414 463.725C424.353 463.647 424.432 464.388 424.432 464.388Z" fill="white"/>
<path d="M404.597 462.999L403.286 458.649C403.286 458.649 408.075 453.469 410.934 453.918C413.333 454.294 411.858 458.878 411.858 458.878C411.858 458.878 410.55 461.34 410.943 462.571C411.333 463.804 404.597 462.999 404.597 462.999Z" fill="#F7A491"/>
<path d="M410.94 462.572C411.333 463.804 404.597 463.001 404.597 463.001L404.489 462.64C404.685 462.399 404.926 462.193 405.219 462.034C406.723 461.219 409.075 460.729 411.107 460.692C410.905 461.356 410.779 462.066 410.94 462.572Z" fill="#F47458"/>
<path d="M403.492 469.155C403.301 469.19 401.967 464.2 404.5 462.827C407.034 461.454 411.972 461.004 413.743 462.086C415.702 463.282 415.605 468.644 411.664 470.056C407.723 471.469 403.492 469.155 403.492 469.155Z" fill="#F7A491"/>
<path d="M410.163 472.725C407.116 472.412 405.146 471.476 404.419 471.076C403.034 470.993 401.155 470.61 399.214 468.991C396.827 467.002 398.589 464.798 401.369 463.717C404.146 462.636 404.108 461.387 404.108 461.387L404.548 462.033C404.87 462.523 405.005 463.04 404.897 463.554C404.832 463.861 404.7 464.195 404.448 464.469C403.779 465.191 405.885 465.671 406.474 466.271C406.929 466.733 406.949 467.792 407.665 468.557L408.518 469.141C408.518 469.141 410.489 469.914 412.418 469.696C414.35 469.478 414.072 473.127 410.163 472.725Z" fill="#3793D8"/>
<path d="M406.345 465.385C406.366 464.776 405.814 464.278 405.116 464.272C404.418 464.266 403.835 464.754 403.814 465.363C403.794 465.972 404.345 466.471 405.043 466.477C405.741 466.483 406.325 465.994 406.345 465.385Z" fill="#F7A491"/>
<path d="M410.459 463.979L414.28 464.079C414.28 464.079 414.268 463.346 412.591 463.279C410.544 463.193 410.459 463.979 410.459 463.979Z" fill="white"/>
<path d="M402.201 458.824C402.55 459.152 403.204 459.373 403.946 459.407C407.157 459.551 415.978 459.554 420.479 455.642C421.189 455.026 421.699 454.356 422.065 453.668L423.013 451.708L399.8 452.086L399.838 453.379C399.606 455.27 400.424 457.154 402.201 458.824Z" fill="#3C8F7C"/>
<path d="M457.342 450.993L460.714 457.859C460.94 458.319 460.38 458.784 459.462 458.898C458.544 459.011 457.617 458.73 457.394 458.269L453.861 451.073L457.342 450.993Z" fill="#666666"/>
<path d="M448.633 451.192C449.586 451.491 450.36 451.736 450.882 451.895C450.92 451.907 453.351 452.492 453.389 452.503C453.732 452.566 454.022 452.614 454.087 452.616C454.272 452.617 455.327 452.795 455.412 452.816C455.497 452.837 455.931 452.835 456.116 452.838C456.301 452.841 458.251 453.346 458.57 453.422C458.893 453.499 459.474 453.783 459.474 453.783L460.746 454.147C461.682 454.415 460.834 454.806 460.834 454.806C461.274 454.934 461.4 455.082 461.324 455.227C461.248 455.373 460.995 455.492 460.984 455.521C460.972 455.549 461.095 455.602 461.095 455.602C461.383 455.677 461.391 455.9 461.3 456.01C461.209 456.122 460.852 456.254 460.67 456.266C460.488 456.278 460.462 456.317 460.462 456.317C460.503 456.472 459.998 456.853 459.638 456.86C459.277 456.868 457.881 456.526 457.711 456.528C457.544 456.529 457.233 456.55 457.031 456.501C456.829 456.453 455.096 456.334 454.808 456.264C454.521 456.197 453.879 455.711 453.401 455.494C452.923 455.276 452.43 454.743 452.275 454.601C452.213 454.545 451.899 454.452 451.539 454.359C451.483 454.33 440.9 452.411 434.633 451.474L448.633 451.192Z" fill="#F7A491"/>
<path d="M415.638 451.858C414.981 453.834 414.174 455.91 413.306 456.869C411.403 458.971 404.981 460.223 401.832 458.917C400.152 458.219 400.876 454.901 402.307 452.035L415.638 451.858Z" fill="#50BFA5"/>
<path d="M322.347 463.293C322.347 463.293 314.483 463.39 311.811 462.503C309.14 461.616 309.465 452.792 309.465 452.792L312.061 452.545C312.061 452.545 313.002 446.474 315.01 446.156C317.019 445.84 330.227 447.871 332.971 449.581C335.716 451.29 327.159 463.877 327.159 463.877L322.347 463.293Z" fill="#3C8F7C"/>
<path d="M336.329 470.292C337.015 471.358 337.472 474.577 337.622 475.672C337.516 475.751 336.942 476.221 337.003 477.137C337.047 477.784 336.144 478.857 336.971 478.785C337.798 478.713 337.842 477.589 338.337 477.782C338.833 477.976 339.062 480.328 339.812 480.262C340.563 480.196 340.053 477.98 340.499 478.154C340.944 478.327 340.962 480.371 342.023 480.278C343.085 480.185 341.554 477.874 342.123 477.824C342.692 477.774 343.58 479.244 344.434 479.169C345.287 479.094 343.029 477.192 343.293 477.293C343.554 477.395 345.372 478.173 345.674 477.998C346.017 477.801 341.806 475.576 341.795 474.991C342.144 473.508 342.842 470.821 341.889 469.133C340.721 467.067 337.733 462.477 337.733 462.477L331.361 463.238C331.361 463.238 335.516 469.028 336.329 470.292Z" fill="#F7A491"/>
<path d="M339.041 477.346C339.355 477.275 339.616 477.167 339.842 477.043C339.865 477.018 340.663 476.641 340.458 476.029C340.32 476.403 340.162 476.819 339.041 477.346Z" fill="#F48C7F"/>
<path d="M298.293 461.566C298.293 461.566 298.457 462.081 297.604 462.876C297.056 463.385 296.891 464.423 296.32 464.2C295.748 463.976 296.607 463.068 296.076 463.124C295.545 463.18 293.504 465.018 292.985 464.815C292.466 464.612 294.613 462.94 294.138 462.99C293.663 463.04 292.024 464.672 291.291 464.385C290.557 464.098 293.554 462.555 293.161 462.402C292.768 462.249 290.927 463.246 290.337 463.015C289.748 462.784 292.974 461.713 292.695 461.743C292.417 461.772 290.417 462.031 290.323 461.831C290.22 461.606 294.396 460.946 294.871 460.479C295.346 460.014 302.527 455.368 304.58 455.365C306.633 455.362 315.846 458.492 316.515 459.508C317.183 460.525 316.351 461.605 315.008 461.744C313.664 461.886 305.076 458.783 304.653 458.827C304.231 458.871 298.293 461.566 298.293 461.566Z" fill="#F7A491"/>
<path d="M296.162 462.692C295.959 462.552 295.839 462.393 295.763 462.23C295.765 462.202 295.445 461.678 296.227 461.195C295.977 461.556 295.707 461.956 296.162 462.692Z" fill="#F48C7F"/>
<path d="M317.705 455.152C317.705 455.152 325.978 451.852 326.893 451.178C327.576 450.675 325.303 445 325.303 445C325.303 445 322.034 444.948 320.535 445.532C320.535 445.532 321.43 449.454 321.037 449.607C320.644 449.76 311.568 451.786 311.568 451.786L312.143 454.113L317.705 455.152Z" fill="#B75742"/>
<path d="M333.575 467.027C333.575 467.027 335.006 466.893 339.9 464.213L334.212 458.408L328.951 463.235L333.575 467.027Z" fill="#9BC1F9"/>
<path d="M324.347 462.933C324.347 462.933 328.086 463.352 329.394 463.673C330.704 463.995 342.821 449.673 339.766 449.167C333.385 448.111 316.82 445.32 316.82 445.32C316.82 445.32 316.342 446.15 316.943 447.661C317.984 450.277 317.641 456.114 317.421 457.135C317.292 457.735 310.225 455.999 310.225 455.999L307.439 460.525C307.439 460.525 315.506 461.903 318.216 462.34C318.972 462.462 324.347 462.933 324.347 462.933Z" fill="#9BC1F9"/>
<path d="M338.17 454.066C336.657 456.429 326.637 463.223 326.549 463.288L328.186 463.848C328.552 463.579 336.716 457.819 338.314 455.32L338.17 454.066Z" fill="#3C8F7C"/>
<path d="M316.441 449.681L315.403 450.341C315.474 450.369 322.447 453.172 322.634 456.276C322.825 459.414 317.784 462.428 317.734 462.458L319.01 463.004C319.236 462.871 324.52 459.717 324.312 456.251C324.098 452.753 316.752 449.804 316.441 449.681Z" fill="#3C8F7C"/>
<path d="M322.556 472.51C322.556 472.51 325.514 473.612 328.318 471.823C330.552 470.396 330.259 470.845 331.361 470.136C332.467 469.425 334.132 469.365 334.385 468.185C334.637 467.005 333.578 466.763 333.578 466.763C333.578 466.763 334.769 465.898 333.874 464.894C332.98 463.891 330.414 462.93 328.098 462.938C328.098 462.938 324.86 461.805 321.312 462.067C317.767 462.327 318.969 462.392 317.556 462.317C316.145 462.24 312.119 463.005 312.442 464.456C312.442 464.456 309.82 465.717 311.832 466.97C313.846 468.223 314.937 469.097 315.917 470.691C316.902 472.278 320.91 472.793 322.556 472.51Z" fill="#666666"/>
<path d="M326.517 464.362C326.517 464.362 326.84 462.265 327.274 462.09C327.708 461.915 328.324 461.619 327.854 461.09C327.385 460.56 324.822 460.744 323.597 460.966C322.421 461.179 321.591 461.65 321.591 461.65L321.465 464.99L326.517 464.362Z" fill="#F7A491"/>
<path d="M325.042 463.405C324.209 463.502 322.752 463.7 321.479 464.522L321.462 464.99L326.514 464.36C326.514 464.36 326.593 463.848 326.725 463.31C326.042 463.289 325.438 463.36 325.042 463.405Z" fill="#F48C7F"/>
<path d="M319.432 466.821C319.432 466.821 319.051 468.043 317.6 467.723C316.148 467.404 317.691 465.612 318.925 465.74C320.157 465.87 319.432 466.821 319.432 466.821Z" fill="#F7A491"/>
<path d="M323.963 471.573C323.963 471.573 326.309 471.726 327.711 470.873C329.109 470.02 330.98 467.467 329.382 465.55C327.784 463.633 325.151 463.942 324.066 464.069C322.981 464.197 320.828 464.491 319.421 466.127C318.01 467.763 317.955 471.607 323.963 471.573Z" fill="#F7A491"/>
<path d="M371.942 452.038L376.265 441.676L368.805 442.04L365.215 451.515L371.942 452.038Z" fill="#F7A491"/>
<path d="M373.221 451.733L365.213 451.515C365.213 451.515 364.614 454.289 364.48 455.616C364.312 457.225 364.374 459.307 364.767 459.271C365.867 459.174 367.362 458.911 368.298 458.333C371.529 456.332 373.221 451.733 373.221 451.733Z" fill="#5184CE"/>
<path d="M367.957 455.98C368.151 455.493 373.221 441.951 373.221 441.951C361.213 438.649 352.049 441.467 352.049 441.467C352.049 441.467 352.507 450.571 351.891 451.833C351.483 452.669 350.008 458.171 351.082 458.356C352.46 458.595 354.542 458.943 356.281 459.08C357.765 459.196 363.556 459.392 364.612 459.243C364.612 459.243 367.148 458.028 367.957 455.98Z" fill="#EAFCFC"/>
<path d="M363.653 468.9C363.653 468.9 368.509 468.937 368.107 466.92C368.107 466.92 371.719 466.215 369.312 464.581C369.312 464.581 371.881 462.824 367.409 461.137C367.409 461.137 366.221 458.777 361.157 459.905C361.157 459.905 359.659 459.345 357.585 460.095C355.512 460.845 355.242 461.29 355.242 461.29C355.242 461.29 350.659 461.725 351.29 463.841C351.29 463.841 348.882 464.871 352.518 466.164C352.518 466.164 352.451 469.065 357.366 468.673C357.366 468.672 360.236 470.886 363.653 468.9Z" fill="#3793D8"/>
<path d="M356.046 464.15C355.914 463.635 355.245 463.254 354.553 463.298C353.861 463.342 353.404 463.795 353.536 464.31C353.668 464.825 354.336 465.206 355.028 465.162C355.723 465.118 356.178 464.665 356.046 464.15Z" fill="#F7A491"/>
<path d="M367.447 462.577C367.022 462.105 366.16 461.838 365.523 461.983C364.887 462.127 364.714 462.627 365.142 463.101C365.567 463.573 366.43 463.839 367.066 463.695C367.702 463.551 367.875 463.051 367.447 462.577Z" fill="#F7A491"/>
<path d="M361.597 461.009C361.591 460.972 362.004 459.646 362.221 458.946C362.304 458.684 362.004 458.431 361.512 458.34C360.189 458.094 357.615 457.779 355.993 458.634C355.847 458.712 355.776 458.82 355.8 458.927L356.471 462.028L361.597 461.009Z" fill="#F7A491"/>
<path d="M361.996 459.673C360.591 459.382 356.536 459.635 356.231 460.916L356.471 462.027L361.597 461.009C361.594 460.991 361.873 460.077 361.996 459.673Z" fill="#F48C7F"/>
<path d="M362.908 467.326C362.908 467.326 360.77 467.558 358.729 466.923C356.688 466.287 353.375 463.785 356.146 461.612C358.917 459.437 363.62 460.503 365.28 462.224C366.934 463.945 367.638 466.509 362.908 467.326Z" fill="#F7A491"/>
<path d="M361.585 461.946L358.741 462.028C358.741 462.028 358.744 461.484 359.993 461.431C361.515 461.365 361.585 461.946 361.585 461.946Z" fill="white"/>
<path d="M366.556 466.106C366.556 466.106 364.485 466.662 362.943 466.59C361.4 466.517 356.374 464.684 355.641 464.991C354.911 465.299 355.852 466.92 356.436 467.155C357.02 467.391 359.348 468.098 359.547 468.112C359.747 468.125 361.861 468.106 362.222 468.059C362.585 468.011 365.198 467.386 365.198 467.386L366.556 466.106Z" fill="#3793D8"/>
<path d="M336.466 440.723C336.51 440.785 336.616 440.788 336.727 440.791C337.789 440.823 338.845 440.864 339.894 440.96C340.07 440.976 340.24 440.998 340.399 441.033C340.689 441.097 340.976 441.099 341.275 441.063C341.437 441.044 341.601 441.042 341.765 441.044C342.299 441.054 343.803 441.338 344.58 441.417C344.759 441.436 344.894 441.506 344.935 441.595C345.61 443.134 347.043 446.584 347.187 447.712C347.372 449.157 348.947 455.68 348.947 455.68L354.295 455.023C354.295 455.023 352.413 450.196 351.955 447.862C351.6 446.06 348.266 442.197 347.214 441.085C346.718 440.261 345.489 440.22 345.205 440.198C345.044 440.186 344.894 440.142 344.791 440.078C344.604 439.962 344.39 439.861 344.14 439.775C343.956 439.714 343.815 439.633 343.698 439.54C343.484 439.371 343.293 439.196 343.102 439.019C342.976 438.903 342.841 438.863 342.642 438.888C342.431 438.913 342.325 438.99 342.319 439.119C342.314 439.309 342.425 439.483 342.604 439.649C342.774 439.803 342.753 439.892 342.536 440.028C342.413 440.106 342.284 440.183 342.123 440.245C341.959 440.307 341.789 440.354 341.575 440.336C341.196 440.282 340.815 440.237 340.425 440.209L340.105 440.171C340.094 440.17 339.932 440.149 339.932 440.149C339.906 440.145 339.343 440.105 339.15 440.102C338.994 440.099 338.742 440.09 338.531 440.081C338.337 440.074 337.927 440.118 337.912 440.118C337.724 440.117 337.554 440.149 337.411 440.209C337.352 440.234 337.293 440.262 337.32 440.307C337.343 440.348 337.408 440.365 337.487 440.374C337.613 440.387 338.27 440.439 338.261 440.452C338.065 440.449 337.452 440.446 337.258 440.446C336.994 440.446 336.763 440.489 336.575 440.585C336.51 440.624 336.422 440.661 336.466 440.723Z" fill="#F7A491"/>
<path d="M345.375 451.757L353.125 449.876C353.125 449.876 354.342 452.732 355.251 454.497C356.031 456.016 352.169 458.715 350.885 458.346C348.005 457.519 345.375 451.757 345.375 451.757Z" fill="#5184CE"/>
<path d="M397.75 456.787L466.661 455.315C466.661 455.315 460.65 445.226 460.503 444.723C460.356 444.22 437.742 438.029 432.059 438.103C426.376 438.176 413.125 440.563 410.271 440.983C407.421 441.404 400.014 444.304 400.457 446.087C400.903 447.871 397.75 456.787 397.75 456.787Z" fill="#EEAA2B"/>
<path d="M417.579 451.668H399.09C398.633 451.668 398.263 451.854 398.263 452.083V452.885C398.263 453.115 398.633 453.3 399.09 453.3H417.579C418.036 453.3 418.406 453.115 418.406 452.885V452.083C418.406 451.855 418.036 451.668 417.579 451.668Z" fill="#EEAA2B"/>
<path d="M425.581 470.932L434.918 469.005L434.384 469.968L430.904 470.932C430.904 470.932 428.053 471.21 427.775 471.285C427.493 471.358 425.581 470.932 425.581 470.932Z" fill="#EEAA2B"/>
<path opacity="0.6" d="M470.092 458.593L397.199 461.724V459.277C397.199 457.891 399.316 456.754 401.996 456.7L466.567 455.398C468.051 455.368 469.502 455.704 470.35 456.332C471.08 456.87 471.403 457.631 470.092 458.593Z" fill="#C5DDF9"/>
<path opacity="0.7" d="M397.199 461.724V462.075L469.831 458.773L470.092 458.593L397.199 461.724Z" fill="#C5DDF9"/>
<path opacity="0.2" d="M413.984 456.457L420.626 456.323L426.08 460.484L419.623 460.76L413.984 456.457Z" fill="white"/>
<path opacity="0.2" d="M425.769 456.219L431.077 460.269L428.622 460.373L423.244 456.27L425.769 456.219Z" fill="white"/>
<path d="M298.452 456.656L381.713 456.242L382.458 443.003C382.458 443.003 372.731 435.905 371.559 435.98C370.386 436.053 345.516 438.061 343.285 437.986C341.053 437.911 321.559 442.712 320.638 442.616C319.717 442.521 313.644 444.157 313.644 444.157L303.745 447.665L293.93 452.733L298.452 456.656Z" fill="#EEAA2B"/>
<path d="M315.304 452.485H296.815C296.358 452.485 295.988 452.67 295.988 452.9V453.702C295.988 453.931 296.358 454.116 296.815 454.116H315.304C315.761 454.116 316.13 453.931 316.13 453.702V452.9C316.13 452.67 315.761 452.485 315.304 452.485Z" fill="#EEAA2B"/>
<path d="M327.622 466.258L324.74 465.98C324.74 465.98 325.016 465.437 326.291 465.541C327.845 465.667 327.622 466.258 327.622 466.258Z" fill="white"/>
<path d="M318.697 467.642C318.697 467.642 325.201 469.137 325.846 471.479C326.491 473.821 320.5 471.584 320.5 471.584L318.078 470.417L318.697 467.642Z" fill="#666666"/>
<path d="M399.562 457.082C399.562 457.082 400.773 456.663 402.304 456.692C402.304 456.692 400.269 456.38 400.208 456.405C400.149 456.43 399.123 456.844 399.137 456.853C399.155 456.86 399.562 457.082 399.562 457.082Z" fill="#EEAA2B"/>
<path d="M405.841 472.203L413.981 471.944C413.981 471.944 412.647 473.05 412.084 473.05C411.518 473.05 407.794 473.05 407.794 473.05L405.841 472.203Z" fill="#EEAA2B"/>
<path d="M733.477 410.543H73.9169C72.4477 410.543 71.2543 411.292 71.2543 412.215C71.2543 413.137 72.4477 413.886 73.9169 413.886H733.477C734.949 413.886 736.139 413.137 736.139 412.215C736.139 411.291 734.946 410.543 733.477 410.543Z" fill="#666666"/>
</g>
</svg>
