<svg width="70" height="70" viewBox="0 0 70 70" fill="none" xmlns="http://www.w3.org/2000/svg">
<rect width="70" height="70" rx="10" fill="#DB6300"/>
<path d="M29.9998 31.2487H33.9996V33.7488H29.9998V31.2487Z" fill="white"/>
<path d="M64.1418 27.5117L57.349 26.2993C56.1104 25.3482 54.825 24.4969 53.4997 23.7498C49.1231 21.272 44.373 19.9934 39.5679 20H38.3878C32.7173 20.0051 27.1374 21.7836 22.157 25.1733L18.7288 27.5107C14.716 27.5671 10.7804 28.9011 7.29411 31.385C5.87728 32.4007 5.00244 34.2849 5 36.3259V43.7475C5 44.4382 5.44759 44.9976 6.00016 44.9976H9.35791C10.45 48.8918 13.8611 50.9424 16.9767 49.5774C18.6918 48.8262 20.0399 47.1408 20.6409 44.9976H47.358C48.4501 48.8918 51.8612 50.9424 54.9768 49.5774C56.6915 48.8262 58.0399 47.1408 58.6409 44.9976H58.9998C59.1272 44.9976 59.2533 44.9676 59.3717 44.9086L62.6107 43.2842C64.0576 42.5681 65.0053 40.8176 65 38.8733V28.7491C65 28.1276 64.6342 27.6002 64.1418 27.5117ZM18.9189 43.4978C18.4766 46.2029 16.3635 47.9479 14.1992 47.3951C12.0345 46.8422 10.6384 44.2012 11.0807 41.4956C11.5234 38.7904 13.6365 37.0455 15.8008 37.5983C17.6632 38.0738 19.0002 40.1219 18.9998 42.498C18.9998 42.8336 18.9726 43.1688 18.9189 43.4978ZM36.9999 42.498H20.9998C20.9998 38.3561 18.3138 34.9985 15 34.9985C11.6862 34.9985 8.99984 38.3561 8.99984 42.498H6.99992V36.3259C7.00114 35.1811 7.49186 34.1237 8.28695 33.5551C11.5503 31.2264 15.2425 30.0007 18.9998 29.9992H36.9999V42.498ZM36.9999 27.4995H22.922L23.1148 27.3678C27.3901 24.4638 32.1391 22.8175 36.9999 22.5546V27.4995ZM38.9998 22.4997H39.5658C43.5958 22.4941 47.5891 23.4502 51.3322 25.3172L49.5862 27.4995H38.9998V22.4997ZM56.9189 43.4978C56.4766 46.2029 54.3636 47.9479 52.1989 47.3951C50.0346 46.8422 48.6385 44.2012 49.0808 41.4956C49.5231 38.7904 51.6365 37.0455 53.8008 37.5983C55.6632 38.0738 57.0003 40.1219 56.9999 42.498C56.9999 42.8336 56.9726 43.1688 56.9189 43.4978ZM63.0001 31.2487H60V33.7489H63.0001V38.8733C63.0025 39.7944 62.5533 40.6233 61.8681 40.9616L58.9998 42.4013C58.9998 42.2864 58.988 42.1725 58.9819 42.0575C58.9758 41.9426 58.9738 41.8078 58.964 41.6827C58.9538 41.5576 58.9339 41.4325 58.918 41.3079C58.9018 41.1828 58.89 41.0577 58.87 40.9443C58.8501 40.8303 58.8208 40.7042 58.7947 40.5852C58.7687 40.4667 58.7488 40.3467 58.7187 40.2302C58.6889 40.1143 58.6527 40.0029 58.619 39.889C58.5848 39.7755 58.5539 39.6581 58.5189 39.5452C58.4839 39.4328 58.4367 39.3305 58.3948 39.2243C58.3528 39.118 58.3118 39.0015 58.265 38.8942C58.2178 38.7869 58.1649 38.6953 58.1197 38.5956C58.0749 38.4955 58.02 38.3815 57.963 38.2793C57.9057 38.1766 57.8528 38.0957 57.7978 38.0032C57.7429 37.9106 57.6806 37.8018 57.6168 37.7056C57.5529 37.6095 57.4931 37.5342 57.4308 37.4554C57.369 37.3771 57.2998 37.2708 57.231 37.1833C57.1618 37.0959 57.0939 37.0267 57.0251 36.9494C56.956 36.8721 56.8819 36.7805 56.8058 36.6992C56.7301 36.6183 56.6528 36.5557 56.5771 36.4845C56.501 36.4133 56.425 36.3371 56.3452 36.2704C56.265 36.2043 56.1751 36.1458 56.0893 36.0756C56.003 36.0055 55.933 35.9505 55.852 35.8971C55.7711 35.8432 55.6702 35.7868 55.5782 35.7319C55.4862 35.6769 55.4142 35.6281 55.3292 35.5833C55.2441 35.5381 55.129 35.4908 55.0293 35.446C54.9292 35.4008 54.8641 35.3657 54.779 35.3321C54.6651 35.2884 54.5483 35.2568 54.4319 35.2207C54.3559 35.1984 54.283 35.1683 54.2061 35.1485C54.0832 35.117 53.9571 35.0997 53.8322 35.0768C53.7581 35.0646 53.6873 35.0443 53.6133 35.0356C53.4131 35.0107 53.2133 34.997 53.0033 34.997C49.6907 35.001 47.0064 38.3561 47.0032 42.4964H39.0002V29.9987H50C50.2653 29.9987 50.5196 29.8669 50.7068 29.6325L53.3 26.3913C54.3884 27.0387 55.4468 27.7624 56.4701 28.5589C56.5881 28.6509 56.72 28.7114 56.8579 28.7364L63.0001 29.8324V31.2487Z" fill="white"/>
</svg>
