<svg width="70" height="70" viewBox="0 0 70 70" fill="none" xmlns="http://www.w3.org/2000/svg">
<rect width="70" height="70" rx="10" fill="#3793D8"/>
<path d="M56.9543 30.71C57.4937 30.71 57.9309 30.2727 57.9309 29.7334C57.9309 29.1941 57.4937 28.7568 56.9543 28.7568C56.415 28.7568 55.9778 29.1941 55.9778 29.7334C55.9778 30.2727 56.415 30.71 56.9543 30.71Z" fill="white"/>
<path d="M57.2891 33.1309C56.751 33.1309 56.3125 33.5684 56.3125 34.1074V37.5391C56.3115 38.0762 55.873 38.5146 55.3359 38.5156H54.3594V33.6328C54.3594 32.2939 54.2246 30.957 53.958 29.6572C53.6993 28.3906 53.3126 27.1445 52.8086 25.9541C52.3144 24.7852 51.7031 23.6582 50.9902 22.6035C50.2842 21.5586 49.4745 20.5771 48.5811 19.6846C47.6884 18.791 46.707 17.9814 45.662 17.2754C44.6073 16.5635 43.4804 15.9512 42.3114 15.457C41.121 14.9531 39.8749 14.5664 38.6083 14.3076C36.0097 13.7754 33.2557 13.7754 30.6571 14.3076C29.3904 14.5664 28.1444 14.9531 26.954 15.457C25.785 15.9512 24.658 16.5635 23.6033 17.2754C22.5584 17.9814 21.577 18.791 20.6835 19.6846C19.7908 20.5771 18.9813 21.5586 18.2753 22.6035C17.5624 23.6582 16.951 24.7852 16.4569 25.9541C15.953 27.1445 15.5663 28.3906 15.3074 29.6572C15.041 30.957 14.9062 32.2939 14.9062 33.6328V38.5156H12.9531V33.6328C12.9531 27.8438 15.209 22.3994 19.3027 18.3027C23.3994 14.209 28.8428 11.9531 34.6328 11.9531H34.6357C43.5439 11.9531 51.6777 17.54 54.876 25.8555C54.9482 26.0439 55.0741 26.2021 55.2401 26.3145C55.5028 26.4912 55.8417 26.5303 56.1376 26.417C56.6396 26.2236 56.8915 25.6582 56.6991 25.1562C56.6991 25.1562 56.6991 25.1553 56.6991 25.1543C55.8553 22.959 54.6873 20.9043 53.2294 19.0469C51.7831 17.207 50.079 15.5938 48.162 14.2539C46.2206 12.8955 44.0955 11.8418 41.8476 11.1221C39.5234 10.3779 37.0966 10 34.6328 10C33.0293 10 31.4268 10.1611 29.87 10.4805C28.3524 10.791 26.8604 11.2539 25.4335 11.8574C24.0331 12.4492 22.6825 13.1826 21.4188 14.0361C20.1679 14.8818 18.9912 15.8525 17.9218 16.9219C16.8523 17.9912 15.8817 19.168 15.036 20.4189C14.1825 21.6826 13.4491 23.0332 12.8572 24.4336C12.2537 25.8604 11.7908 27.3525 11.4803 28.8701C11.161 30.4268 11 32.0293 11 33.6328V47.3047C11 53.2279 15.8189 58.0469 21.7422 58.0469H31.3009C31.9773 59.2133 33.239 60 34.6816 60C36.8355 60 38.5879 58.2477 38.5879 56.0938C38.5879 55.3825 38.3959 54.7156 38.0624 54.1406H43.959C44.4982 54.1406 44.9355 53.7034 44.9355 53.1641V41.4453C44.9355 40.906 44.4982 40.4688 43.959 40.4688H25.3066C24.7674 40.4688 24.3301 40.906 24.3301 41.4453V53.1641C24.3301 53.7034 24.7674 54.1406 25.3066 54.1406H31.3009C30.9674 54.7156 30.7754 55.3825 30.7754 56.0938H21.7422C16.8959 56.0938 12.9531 52.151 12.9531 47.3047V40.4688H14.9062V43.3984C14.9062 45.0139 16.2205 46.3281 17.8359 46.3281C19.4514 46.3281 20.7656 45.0139 20.7656 43.3984V35.5859C20.7656 33.9705 19.4514 32.6562 17.8359 32.6562C17.5006 32.6562 17.1786 32.7136 16.8783 32.8178C17.0776 28.3775 18.9018 24.2299 22.0653 21.0654C25.4228 17.709 29.8866 15.8594 34.6328 15.8594C39.3789 15.8594 43.8428 17.709 47.2001 21.0654C50.3637 24.2309 52.188 28.3776 52.3872 32.8178C52.0869 32.7136 51.765 32.6562 51.4297 32.6562C49.8143 32.6562 48.5 33.9705 48.5 35.5859V43.3984C48.5 45.0139 49.8143 46.3281 51.4297 46.3281C53.0451 46.3281 54.3594 45.0139 54.3594 43.3984V40.4688H55.3359C56.1182 40.4688 56.8545 40.1641 57.4072 39.6104C57.9609 39.0576 58.2656 38.3223 58.2656 37.5391V34.1074C58.2656 33.5684 57.8271 33.1309 57.2891 33.1309ZM26.2832 46.3281H42.9824V48.2812H26.2832V46.3281ZM42.9824 42.4219V44.375H26.2832V42.4219H42.9824ZM26.2832 50.2344H42.9824V52.1875H26.2832V50.2344ZM36.6348 56.0938C36.6348 57.1707 35.7586 58.0469 34.6816 58.0469C33.6047 58.0469 32.7285 57.1707 32.7285 56.0938C32.7285 55.0168 33.6047 54.1406 34.6816 54.1406C35.7586 54.1406 36.6348 55.0168 36.6348 56.0938ZM17.8359 34.6094C18.3744 34.6094 18.8125 35.0475 18.8125 35.5859V43.3984C18.8125 43.9369 18.3744 44.375 17.8359 44.375C17.2975 44.375 16.8594 43.9369 16.8594 43.3984V35.5859C16.8594 35.0475 17.2975 34.6094 17.8359 34.6094ZM52.4062 43.3984C52.4062 43.9369 51.9682 44.375 51.4297 44.375C50.8912 44.375 50.4531 43.9369 50.4531 43.3984V35.5859C50.4531 35.0475 50.8912 34.6094 51.4297 34.6094C51.9682 34.6094 52.4062 35.0475 52.4062 35.5859V43.3984Z" fill="white"/>
<path d="M39.496 27.439L37.5428 35.2514C37.412 35.7747 37.7301 36.3049 38.2533 36.4357C38.3328 36.4555 38.4126 36.4651 38.491 36.4651C38.9285 36.4651 39.3267 36.1689 39.4376 35.7252L41.3907 27.9127C41.5215 27.3894 41.2034 26.8593 40.6802 26.7284C40.157 26.598 39.6268 26.9157 39.496 27.439Z" fill="white"/>
<path d="M48.9638 27.1237C48.7817 26.858 48.4804 26.6992 48.1582 26.6992H44.3496C43.8104 26.6992 43.373 27.1364 43.373 27.6758C43.373 28.2151 43.8104 28.6523 44.3496 28.6523H46.7331L44.2237 35.1358C44.0291 35.6388 44.279 36.2044 44.782 36.399C44.898 36.4438 45.017 36.4651 45.1343 36.4651C45.5259 36.4651 45.8954 36.2278 46.0452 35.8407L49.0689 28.0282C49.1853 27.7278 49.1458 27.3895 48.9638 27.1237Z" fill="white"/>
<path d="M34.1952 36.4648H34.2027C34.7385 36.4648 35.175 36.0323 35.179 35.4955C35.1809 35.2401 35.1844 34.7557 35.1883 34.1522C35.673 34.095 36.049 33.6826 36.049 33.1825C36.049 32.6861 35.6786 32.2763 35.1993 32.214C35.2083 30.3668 35.2127 28.4207 35.1933 28.1477C35.1436 27.4519 34.7425 26.9007 34.1713 26.7432C33.963 26.6859 33.239 26.5632 32.6625 27.3895C32.2783 27.9401 30.52 31.6435 29.9902 32.7655C29.8474 33.068 29.8694 33.4226 30.0484 33.7053C30.2275 33.9879 30.5387 34.1591 30.8733 34.1591H33.2351C33.2322 34.6263 33.229 35.0742 33.226 35.4811C33.222 36.0204 33.6559 36.4608 34.1952 36.4648ZM32.4191 32.2059C32.7099 31.5988 32.9954 31.0083 33.2527 30.483C33.2512 31.0134 33.2489 31.602 33.2459 32.2059H32.4191Z" fill="white"/>
<path d="M25.724 31.0373C24.5144 32.7698 23.7928 33.717 23.4051 34.2258C22.9185 34.8646 22.6741 35.1852 22.8386 35.7193C22.9358 36.0355 23.1749 36.278 23.4942 36.3847C23.6229 36.4277 23.7387 36.4665 25.2476 36.4665C25.8323 36.4665 26.6266 36.4607 27.7114 36.447C28.2507 36.4402 28.6823 35.9975 28.6756 35.4582C28.6688 34.9232 28.233 34.494 27.6994 34.494C27.6952 34.494 26.2669 34.5088 25.6353 34.5109C26.0487 33.9533 26.6018 33.1917 27.3254 32.1553C27.8218 31.4444 28.1458 30.7707 28.2888 30.1528C28.2961 30.121 28.3518 29.6777 28.3518 29.6363C28.3518 28.0167 27.0362 26.699 25.4192 26.699C24.0209 26.699 22.8106 27.6955 22.5416 29.0685C22.4379 29.5978 22.7829 30.1109 23.3122 30.2146C23.8414 30.318 24.3547 29.9733 24.4583 29.444C24.5482 28.9851 24.9523 28.6521 25.4192 28.6521C25.9421 28.6521 26.3705 29.0658 26.3974 29.5845L26.3756 29.7551C26.2831 30.1161 26.0586 30.5582 25.724 31.0373Z" fill="white"/>
</svg>
