<svg width="70" height="70" viewBox="0 0 70 70" fill="none" xmlns="http://www.w3.org/2000/svg">
<rect width="70" height="70" rx="10" fill="#EB5757"/>
<path d="M29.8786 43.6926L36.7839 22.9764C37.0397 22.209 36.6249 21.3794 35.8574 21.1235C35.09 20.8678 34.2604 21.2825 34.0045 22.05L27.0992 42.7661C26.8435 43.5336 27.2582 44.3632 28.0257 44.619C28.1793 44.6702 28.3355 44.6945 28.4891 44.6945C29.1023 44.6946 29.6739 44.3064 29.8786 43.6926Z" fill="white"/>
<path d="M40.2278 37.2659C42.6509 37.2659 44.6223 35.2945 44.6223 32.8713C44.6223 30.4482 42.6509 28.4768 40.2278 28.4768C37.8046 28.4768 35.8333 30.4482 35.8333 32.8713C35.8333 35.2945 37.8046 37.2659 40.2278 37.2659ZM40.2278 31.4065C41.0355 31.4065 41.6926 32.0636 41.6926 32.8713C41.6926 33.6791 41.0355 34.3362 40.2278 34.3362C39.4201 34.3362 38.7629 33.6791 38.7629 32.8713C38.7629 32.0636 39.4201 31.4065 40.2278 31.4065Z" fill="white"/>
<path d="M23.655 28.4768C21.2319 28.4768 19.2605 30.4482 19.2605 32.8713C19.2605 35.2945 21.2319 37.2659 23.655 37.2659C26.0782 37.2659 28.0496 35.2945 28.0496 32.8713C28.0496 30.4482 26.0783 28.4768 23.655 28.4768ZM23.655 34.3362C22.8473 34.3362 22.1902 33.6791 22.1902 32.8713C22.1902 32.0636 22.8473 31.4065 23.655 31.4065C24.4627 31.4065 25.1199 32.0636 25.1199 32.8713C25.1199 33.6791 24.4628 34.3362 23.655 34.3362Z" fill="white"/>
<path d="M59.707 28.164L54.5989 21.3532L54.7982 19.9584C54.8634 19.5019 54.71 19.0414 54.3839 18.7154L51.2765 15.608L54.3838 12.5006C54.9559 11.9286 54.9559 11.0011 54.3838 10.429C53.8118 9.85701 52.8843 9.85701 52.3122 10.429L49.2049 13.5364L46.0975 10.429C45.7715 10.1029 45.3109 9.94998 44.8545 10.0146L30.3532 12.0862C30.0394 12.131 29.7487 12.2764 29.5246 12.5006L11.5707 30.4545C9.47644 32.5486 9.47644 35.9562 11.5707 38.0504L26.7624 53.2422C27.0731 53.5529 27.4134 53.8165 27.7734 54.035V54.6289C27.7734 57.5905 30.1829 60 33.1445 60H54.6289C57.5905 60 60 57.5905 60 54.6289V29.043C60 28.7261 59.8972 28.4176 59.707 28.164ZM13.6423 35.9788C12.6903 35.0268 12.6903 33.478 13.6423 32.5261L31.2509 14.9175L44.5436 13.0185L47.1332 15.6081L45.0616 17.6797L44.0258 16.6438C43.4538 16.0719 42.5263 16.0719 41.9542 16.6438C41.3821 17.2158 41.3821 18.1433 41.9542 18.7154L46.0975 22.8587C46.3835 23.1447 46.7584 23.2878 47.1332 23.2878C47.508 23.2878 47.883 23.1447 48.1689 22.8587C48.741 22.2867 48.741 21.3592 48.1689 20.7871L47.1331 19.7512L49.2047 17.6797L51.7942 20.2692L49.8952 33.562L32.2867 51.1706C31.8256 51.6317 31.2125 51.8856 30.5603 51.8856C29.9082 51.8856 29.2951 51.6316 28.834 51.1706L13.6423 35.9788ZM57.0703 54.6289C57.0703 55.9751 55.9751 57.0703 54.6289 57.0703H33.1445C31.859 57.0703 30.8031 56.0715 30.7104 54.8092C32.0353 54.7725 33.3493 54.2512 34.3582 53.2422L52.3121 35.2883C52.5362 35.0641 52.6816 34.7734 52.7265 34.4597L54.0129 25.4548L57.0703 29.5312V54.6289Z" fill="white"/>
</svg>
