<svg width="70" height="70" viewBox="0 0 70 70" fill="none" xmlns="http://www.w3.org/2000/svg">
<rect width="70" height="70" rx="10" fill="#EEAA2B"/>
<path d="M59.2493 22.6064C59.2436 22.6033 42.6088 16.3583 42.6024 16.3556C44.1355 12.8911 40.9178 9.10881 37.1977 10.1872C36.8048 10.3017 36.5789 10.7121 36.6934 11.1047C36.8067 11.4964 37.2171 11.7234 37.6101 11.609C39.5544 11.0425 41.5064 12.5092 41.5064 14.5333C41.5064 17.5744 37.5952 18.6841 35.9385 16.2385C35.2758 15.2608 35.2594 14.0233 35.7965 13.0574C35.9949 12.7 35.8656 12.2502 35.5082 12.0511C35.1511 11.8527 34.7002 11.982 34.5018 12.3391C33.3773 14.3643 33.9628 16.9579 35.9385 18.2897V22.1631C35.9385 22.5717 36.27 22.9032 36.6785 22.9032C37.0878 22.9032 37.4186 22.5717 37.4186 22.1631V18.9378C38.1228 19.1064 38.9074 19.1056 39.6612 18.8973V40.915C39.3381 40.915 38.1651 40.9128 37.4186 40.9128V25.1233C37.4186 24.714 37.0878 24.3833 36.6785 24.3833C36.27 24.3833 35.9385 24.714 35.9385 25.1233V40.9128C34.5987 40.9128 33.3979 41.1451 32.1379 41.8672C31.8083 41.2118 31.1296 40.7609 30.3472 40.7609H26.6748C25.5705 40.7609 24.6717 41.6589 24.6717 42.7629V43.947H12.2297C10.9995 43.947 10 44.9476 10 46.1767V55.1652C10 56.3959 10.9995 57.3953 12.2297 57.3953H24.6717V57.9969C24.6717 59.1013 25.5705 60 26.6748 60H30.3472C31.019 60 31.6149 59.6674 31.978 59.1573C33.7179 60.0431 33.7152 59.847 46.1931 59.847C48.3961 59.847 49.4581 57.1512 47.9464 55.6154C48.8905 54.6564 48.892 53.0836 47.9502 52.1226C48.8913 51.1602 48.8901 49.5916 47.9502 48.6326C49.3822 47.1715 48.5018 44.6435 46.4632 44.4196C46.7989 42.9319 45.5114 40.915 43.4115 40.915H41.1413V31.4538L47.1934 29.1814C47.5763 29.0383 47.7698 28.6122 47.6256 28.2292C47.4825 27.8466 47.0553 27.6532 46.6734 27.7963L41.1413 29.873V18.1783C41.366 18.0123 41.5743 17.8258 41.7646 17.6225L57.7685 23.6306L49.444 26.7564C49.0622 26.8994 48.8676 27.3267 49.0118 27.7093C49.1549 28.0912 49.5821 28.2857 49.9651 28.1415C49.9766 28.1373 59.2375 24.661 59.2486 24.6556C60.1759 24.2909 60.1786 22.9745 59.2493 22.6064ZM24.6717 55.9152H12.2297C11.8166 55.9152 11.4801 55.5788 11.4801 55.1652V46.1767C11.4801 45.7635 11.8166 45.4271 12.2297 45.4271H24.6717V55.9152ZM30.7436 58.3356C30.5384 58.5817 30.6726 58.5199 26.6748 58.5199C26.3864 58.5199 26.1518 58.2853 26.1518 57.9969C26.1518 56.1582 26.1518 43.3801 26.1518 42.7629C26.1518 42.4749 26.3864 42.241 26.6748 42.241H30.3472C30.6112 42.241 30.8699 42.452 30.8699 42.7884C30.8699 59.2428 30.9244 58.1255 30.7436 58.3356ZM32.35 57.6726V53.9506C33.6397 53.7427 34.8543 53.2869 35.9385 52.6327C35.9385 57.9153 35.9076 57.8241 36.0273 58.3669C34.7723 58.3669 33.6874 58.476 32.35 57.6726ZM38.341 58.3669H37.5891C37.3617 57.9561 37.4186 57.9114 37.4186 51.5462C37.6818 51.3135 37.9335 51.0667 38.1712 50.8073C38.2551 51.3143 38.4951 51.7702 38.8403 52.1226C37.8878 53.0923 37.9107 54.669 38.8441 55.6154C38.0995 56.3703 37.9557 57.4834 38.341 58.3669ZM46.1931 58.3669C45.6175 58.3669 41.3385 58.3669 40.5977 58.3669C39.9141 58.3669 39.4598 57.6952 39.6612 57.0489C39.7856 56.6492 40.1587 56.3592 40.5977 56.3592H46.1931C46.7337 56.3592 47.1735 56.7991 47.1735 57.34C47.1735 57.9759 46.6997 58.3669 46.1931 58.3669ZM46.0558 54.8715C44.4521 54.8715 42.219 54.8715 40.5977 54.8715C39.9244 54.8715 39.4556 54.2112 39.6612 53.552C39.7856 53.1526 40.1587 52.8623 40.5977 52.8623H46.1931C47.4344 52.8623 47.6137 54.8715 46.0558 54.8715ZM39.617 50.3534C39.617 49.8151 40.0545 49.3726 40.5977 49.3726H46.1931C46.6948 49.3726 47.1735 49.7583 47.1735 50.3999C47.1735 50.9416 46.7337 51.3814 46.1931 51.3814C45.7598 51.3814 45.619 51.3814 45.6228 51.3814C44.9221 51.3814 43.4561 51.3814 40.5977 51.3814C40.0957 51.3814 39.617 50.9965 39.617 50.3534ZM46.1931 45.8848C46.6948 45.8848 47.1735 46.2705 47.1735 46.9118C47.1735 47.4527 46.7337 47.8925 46.1931 47.8925C40.0827 47.8925 40.415 47.9429 40.1014 47.7575C39.8932 47.635 39.7341 47.4389 39.6612 47.2051V46.5745C39.9077 45.783 40.7148 45.8848 41.1413 45.8848H46.1931ZM43.4115 42.3948C44.9488 42.3948 45.4657 44.4036 44.6379 44.4036H43.8654C43.8784 44.4036 43.891 44.4036 43.9028 44.4047C40.275 44.4047 40.111 44.3284 39.4312 44.6996C38.2177 45.3512 37.8336 46.8316 38.3757 47.9684C37.1626 50.2882 34.9356 51.9548 32.35 52.448C32.35 49.859 32.35 46.4143 32.35 43.49C33.3002 42.8003 34.4675 42.3929 35.7275 42.3929C38.4989 42.3929 43.3981 42.3948 43.4115 42.3948Z" fill="white"/>
</svg>
