<svg width="60" height="60" viewBox="0 0 60 60" fill="none" xmlns="http://www.w3.org/2000/svg">
<rect width="60" height="60" rx="8" fill="#EA880F"/>
<path d="M32.2228 29.2494V31.7031C38.3539 32.3106 42.0024 34.4387 42.0024 36.0363C42.0024 37.919 36.9522 40.5441 28.7285 40.5441C20.5048 40.5441 15.4558 37.919 15.4558 36.0363C15.4558 34.4268 19.1546 32.2796 25.364 31.6891V29.2366C18.8985 29.8419 13 32.1788 13 36.0363C13 40.5591 21.1036 43 28.7285 43C36.3532 43 44.4582 40.5591 44.4582 36.0363C44.4582 32.2045 38.6377 29.874 32.2228 29.2494Z" fill="white"/>
<path d="M45.745 14.0716C45.5575 13.9538 45.3443 13.8947 45.13 13.8947C44.9584 13.8947 44.7871 13.9322 44.6274 14.0093L42.5915 14.9972C41.6443 15.457 40.6178 15.6863 39.5924 15.6863C38.508 15.6863 37.4258 15.4302 36.4367 14.9201C35.4499 14.4111 34.372 14.1583 33.2962 14.1583C32.1711 14.1583 31.0471 14.4337 30.0281 14.9823V14.2355C30.0281 13.5529 29.4742 13 28.7927 13C28.1111 13 27.5582 13.5529 27.5582 14.2355V36.3588C27.5582 37.0403 28.1111 37.5933 28.7927 37.5933C29.4742 37.5933 30.0281 37.0403 30.0281 36.3588V25.0674C31.047 24.5187 32.1722 24.2422 33.2972 24.2422C34.3731 24.2422 35.4499 24.4951 36.4367 25.004C37.4258 25.5141 38.508 25.7702 39.5912 25.7702C40.6167 25.7702 41.6432 25.5409 42.5915 25.0813L45.6345 23.6048C46.0331 23.4119 46.2859 23.009 46.2859 22.5665V15.0498C46.2861 14.6512 46.0804 14.2816 45.745 14.0716Z" fill="white"/>
</svg>
