<svg width="60" height="60" viewBox="0 0 60 60" fill="none" xmlns="http://www.w3.org/2000/svg">
<rect width="60" height="60" rx="8" fill="#3793D8"/>
<path d="M23.6738 42.1504V41.1465C23.6738 40.6457 23.2664 40.2383 22.7656 40.2383H19.8203C19.3195 40.2383 18.9121 40.6457 18.9121 41.1465V42.1504C18.9121 42.6512 19.3195 43.0586 19.8203 43.0586H22.7656C23.2664 43.0586 23.6738 42.6512 23.6738 42.1504ZM19.791 42.1504V41.1465C19.791 41.1303 19.8041 41.1172 19.8203 41.1172H22.7656C22.7818 41.1172 22.7949 41.1303 22.7949 41.1465V42.1504C22.7949 42.1665 22.7818 42.1797 22.7656 42.1797H19.8203C19.8041 42.1797 19.791 42.1665 19.791 42.1504Z" fill="white"/>
<path d="M35.8536 35.3848C35.076 35.3848 34.4435 36.0173 34.4435 36.7949C34.4435 37.5725 35.0761 38.2051 35.8536 38.2051C36.6311 38.2051 37.2638 37.5725 37.2638 36.7949C37.2638 36.0174 36.6311 35.3848 35.8536 35.3848ZM35.8536 37.3262C35.5607 37.3262 35.3224 37.0879 35.3224 36.7949C35.3224 36.502 35.5607 36.2637 35.8536 36.2637C36.1466 36.2637 36.3849 36.502 36.3849 36.7949C36.3848 37.0879 36.1465 37.3262 35.8536 37.3262Z" fill="white"/>
<path d="M40.707 31.5019H40.1758V29.0293V25.1464C40.1758 24.3689 39.5433 23.7363 38.7657 23.7363H38.2345V17.8662C38.2345 17.3563 37.8195 16.9414 37.3096 16.9414H28.5733C28.5578 16.9414 28.5427 16.943 28.5274 16.9438V16.377C28.5274 15.6177 27.9097 15 27.1504 15H19.3183C18.5591 15 17.9414 15.6177 17.9414 16.377V17.958C17.9414 18.2007 18.1381 18.3974 18.3808 18.3974C18.6235 18.3974 18.8203 18.2007 18.8203 17.958V16.377C18.8203 16.1023 19.0437 15.8789 19.3183 15.8789H19.8828V27.6192H18.8203V19.7158C18.8203 19.4731 18.6235 19.2763 18.3808 19.2763C18.1381 19.2763 17.9414 19.4731 17.9414 19.7158V23.7771C17.4619 23.8658 17.0223 24.0993 16.6743 24.457C16.2411 24.9023 16.0041 25.4841 16.0007 26.1029C16.0005 26.1077 16 26.1124 16 26.1172V42.6191C16 43.932 17.068 45 18.3809 45H20.414C20.6567 45 20.8535 44.8032 20.8535 44.5605C20.8535 44.3179 20.6567 44.1211 20.414 44.1211H18.3809C17.5527 44.1211 16.8789 43.4473 16.8789 42.6191V27.9444C17.2807 28.2734 17.7899 28.4779 18.3415 28.496C18.3545 28.4972 38.7656 28.498 38.7656 28.498C39.0585 28.498 39.2968 28.7363 39.2968 29.0292V33.4433H33.9121C33.1345 33.4433 32.5019 34.0758 32.5019 34.8534V38.7363C32.5019 39.5139 33.1345 40.1464 33.9121 40.1464H39.2968V43.5898C39.2968 43.8827 39.0585 44.1211 38.7656 44.1211H22.1719C21.9292 44.1211 21.7324 44.3179 21.7324 44.5605C21.7324 44.8032 21.9292 45 22.1719 45H38.7657C39.5433 45 40.1758 44.3674 40.1758 43.5898V40.1464H40.707C42.0198 40.1464 43.0878 39.0784 43.0878 37.7656V33.8828C43.0879 32.57 42.0198 31.5019 40.707 31.5019ZM16.8795 26.1597C16.8682 25.75 17.0191 25.363 17.3042 25.0699C17.4839 24.8852 17.7022 24.7529 17.9414 24.6802V27.543C17.3416 27.3485 16.8971 26.8021 16.8795 26.1597ZM28.5732 17.8203H37.3095C37.3349 17.8203 37.3555 17.8409 37.3555 17.8662V27.6191H36.2929V20.569C36.2929 20.2472 36.0737 19.9737 35.76 19.9038C35.5355 19.8538 35.3212 19.6394 35.2721 19.4158C35.2042 19.1069 34.9244 18.8827 34.6068 18.8827H31.276C30.9542 18.8827 30.6807 19.1019 30.6108 19.4157C30.5608 19.6402 30.3464 19.8545 30.1228 19.9037C29.8139 19.9715 29.5897 20.2513 29.5897 20.5689V27.6191H28.5273V17.8662C28.5273 17.8409 28.5479 17.8203 28.5732 17.8203ZM35.414 27.6192H30.4687V20.7176C30.9057 20.5658 31.2722 20.1993 31.4246 19.7617H34.4581C34.61 20.1987 34.9765 20.5652 35.414 20.7176V27.6192ZM27.6484 16.377V17.8662V27.6192H22.7031V15.8789H27.1504C27.425 15.8789 27.6484 16.1023 27.6484 16.377ZM20.7617 27.6192V15.8789H21.8242V27.6192H20.7617ZM38.7657 27.6192H38.2344V24.6152H38.7657C39.0586 24.6152 39.2969 24.8535 39.2969 25.1464V27.7233C39.1328 27.6564 38.9535 27.6192 38.7657 27.6192ZM42.209 37.7656C42.209 38.5938 41.5352 39.2675 40.707 39.2675H33.9121C33.6192 39.2675 33.3808 39.0292 33.3808 38.7363V34.8535C33.3808 34.5606 33.6191 34.3222 33.9121 34.3222H40.2217C40.4644 34.3222 40.6611 34.1255 40.6611 33.8828C40.6611 33.6401 40.4644 33.4433 40.2217 33.4433H40.1758V32.3808H40.707C41.5352 32.3808 42.2089 33.0546 42.2089 33.8828V37.7656H42.209Z" fill="white"/>
<path d="M32.9414 23.7363C32.1638 23.7363 31.5312 24.3689 31.5312 25.1464C31.5312 25.924 32.1638 26.5566 32.9414 26.5566C33.719 26.5566 34.3515 25.924 34.3515 25.1464C34.3516 24.3689 33.719 23.7363 32.9414 23.7363ZM32.9414 25.6777C32.6485 25.6777 32.4102 25.4394 32.4102 25.1464C32.4102 24.8535 32.6485 24.6152 32.9414 24.6152C33.2343 24.6152 33.4726 24.8535 33.4726 25.1464C33.4727 25.4394 33.2343 25.6777 32.9414 25.6777Z" fill="white"/>
<path d="M32.9414 22.6738C33.1841 22.6738 33.3809 22.4771 33.3809 22.2344V21.2637C33.3809 21.021 33.1841 20.8242 32.9414 20.8242C32.6987 20.8242 32.502 21.021 32.502 21.2637V22.2344C32.502 22.4771 32.6987 22.6738 32.9414 22.6738Z" fill="white"/>
<path d="M24.6738 20.7324H25.6777C26.1785 20.7324 26.5859 20.325 26.5859 19.8242V17.8496C26.5859 17.3488 26.1785 16.9414 25.6777 16.9414H24.6738C24.173 16.9414 23.7656 17.3488 23.7656 17.8496V19.8242C23.7656 20.325 24.173 20.7324 24.6738 20.7324ZM24.6445 17.8496C24.6445 17.8334 24.6577 17.8203 24.6738 17.8203H25.6777C25.6939 17.8203 25.707 17.8334 25.707 17.8496V19.8242C25.707 19.8403 25.6939 19.8535 25.6777 19.8535H24.6738C24.6577 19.8535 24.6445 19.8403 24.6445 19.8242V17.8496Z" fill="white"/>
</svg>
