<svg width="60" height="60" viewBox="0 0 60 60" fill="none" xmlns="http://www.w3.org/2000/svg">
<rect width="60" height="60" rx="8" fill="#0600AE"/>
<path d="M42.5 18H40V17C40 16.4696 39.7893 15.9609 39.4142 15.5858C39.0391 15.2107 38.5304 15 38 15C37.4696 15 36.9609 15.2107 36.5858 15.5858C36.2107 15.9609 36 16.4696 36 17V18H32V17C32 16.4696 31.7893 15.9609 31.4142 15.5858C31.0391 15.2107 30.5304 15 30 15C29.4696 15 28.9609 15.2107 28.5858 15.5858C28.2107 15.9609 28 16.4696 28 17V18H24V17C24 16.4696 23.7893 15.9609 23.4142 15.5858C23.0391 15.2107 22.5304 15 22 15C21.4696 15 20.9609 15.2107 20.5858 15.5858C20.2107 15.9609 20 16.4696 20 17V18H17.5C16.837 18 16.2011 18.2634 15.7322 18.7322C15.2634 19.2011 15 19.837 15 20.5V40.5C15 41.163 15.2634 41.7989 15.7322 42.2678C16.2011 42.7366 16.837 43 17.5 43H31.5C31.6326 43 31.7598 42.9473 31.8536 42.8535C31.9473 42.7598 32 42.6326 32 42.5C32 42.3674 31.9473 42.2402 31.8536 42.1464C31.7598 42.0527 31.6326 42 31.5 42H17.5C17.1025 41.9988 16.7217 41.8404 16.4407 41.5593C16.1596 41.2783 16.0012 40.8975 16 40.5V25H44V33.5C44 33.6326 44.0527 33.7598 44.1464 33.8536C44.2402 33.9473 44.3674 34 44.5 34C44.6326 34 44.7598 33.9473 44.8535 33.8536C44.9473 33.7598 45 33.6326 45 33.5V20.5C45 19.837 44.7366 19.2011 44.2678 18.7322C43.7989 18.2634 43.163 18 42.5 18ZM37 17C37 16.7348 37.1054 16.4804 37.2929 16.2929C37.4804 16.1054 37.7348 16 38 16C38.2652 16 38.5196 16.1054 38.7071 16.2929C38.8946 16.4804 39 16.7348 39 17V20C39 20.2652 38.8946 20.5196 38.7071 20.7071C38.5196 20.8946 38.2652 21 38 21C37.7348 21 37.4804 20.8946 37.2929 20.7071C37.1054 20.5196 37 20.2652 37 20V17ZM29 17C29 16.7348 29.1054 16.4804 29.2929 16.2929C29.4804 16.1054 29.7348 16 30 16C30.2652 16 30.5196 16.1054 30.7071 16.2929C30.8946 16.4804 31 16.7348 31 17V20C31 20.2652 30.8946 20.5196 30.7071 20.7071C30.5196 20.8946 30.2652 21 30 21C29.7348 21 29.4804 20.8946 29.2929 20.7071C29.1054 20.5196 29 20.2652 29 20V17ZM21 17C21 16.7348 21.1054 16.4804 21.2929 16.2929C21.4804 16.1054 21.7348 16 22 16C22.2652 16 22.5196 16.1054 22.7071 16.2929C22.8946 16.4804 23 16.7348 23 17V20C23 20.2652 22.8946 20.5196 22.7071 20.7071C22.5196 20.8946 22.2652 21 22 21C21.7348 21 21.4804 20.8946 21.2929 20.7071C21.1054 20.5196 21 20.2652 21 20V17ZM44 24H16V20.5C16.0012 20.1025 16.1596 19.7217 16.4407 19.4407C16.7217 19.1596 17.1025 19.0012 17.5 19H20V20C20 20.5304 20.2107 21.0391 20.5858 21.4142C20.9609 21.7893 21.4696 22 22 22C22.5304 22 23.0391 21.7893 23.4142 21.4142C23.7893 21.0391 24 20.5304 24 20V19H28V20C28 20.5304 28.2107 21.0391 28.5858 21.4142C28.9609 21.7893 29.4696 22 30 22C30.5304 22 31.0391 21.7893 31.4142 21.4142C31.7893 21.0391 32 20.5304 32 20V19H36V20C36 20.5304 36.2107 21.0391 36.5858 21.4142C36.9609 21.7893 37.4696 22 38 22C38.5304 22 39.0391 21.7893 39.4142 21.4142C39.7893 21.0391 40 20.5304 40 20V19H42.5C42.8975 19.0012 43.2783 19.1596 43.5593 19.4407C43.8404 19.7217 43.9988 20.1025 44 20.5V24Z" fill="white"/>
<path d="M29 28.5C29 28.2348 28.8946 27.9804 28.7071 27.7929C28.5196 27.6054 28.2652 27.5 28 27.5H26C25.7348 27.5 25.4804 27.6054 25.2929 27.7929C25.1054 27.9804 25 28.2348 25 28.5V30C25 30.2652 25.1054 30.5196 25.2929 30.7071C25.4804 30.8946 25.7348 31 26 31H28C28.2652 31 28.5196 30.8946 28.7071 30.7071C28.8946 30.5196 29 30.2652 29 30V28.5ZM26 30V28.5H28V30H26Z" fill="white"/>
<path d="M23 28.5C23 28.2348 22.8946 27.9804 22.7071 27.7929C22.5196 27.6054 22.2652 27.5 22 27.5H20C19.7348 27.5 19.4804 27.6054 19.2929 27.7929C19.1054 27.9804 19 28.2348 19 28.5V30C19 30.2652 19.1054 30.5196 19.2929 30.7071C19.4804 30.8946 19.7348 31 20 31H22C22.2652 31 22.5196 30.8946 22.7071 30.7071C22.8946 30.5196 23 30.2652 23 30V28.5ZM20 30V28.5H22V30H20Z" fill="white"/>
<path d="M40 31C40.2652 31 40.5196 30.8946 40.7071 30.7071C40.8946 30.5196 41 30.2652 41 30V28.5C41 28.2348 40.8946 27.9804 40.7071 27.7929C40.5196 27.6054 40.2652 27.5 40 27.5H38C37.7348 27.5 37.4804 27.6054 37.2929 27.7929C37.1054 27.9804 37 28.2348 37 28.5V30C37 30.2652 37.1054 30.5196 37.2929 30.7071C37.4804 30.8946 37.7348 31 38 31H40ZM38 28.5H40V30H38V28.5Z" fill="white"/>
<path d="M29 33C29 32.7348 28.8946 32.4804 28.7071 32.2929C28.5196 32.1054 28.2652 32 28 32H26C25.7348 32 25.4804 32.1054 25.2929 32.2929C25.1054 32.4804 25 32.7348 25 33V34.5C25 34.7652 25.1054 35.0196 25.2929 35.2071C25.4804 35.3946 25.7348 35.5 26 35.5H28C28.2652 35.5 28.5196 35.3946 28.7071 35.2071C28.8946 35.0196 29 34.7652 29 34.5V33ZM26 34.5V33H28V34.5H26Z" fill="white"/>
<path d="M23 33C23 32.7348 22.8946 32.4804 22.7071 32.2929C22.5196 32.1054 22.2652 32 22 32H20C19.7348 32 19.4804 32.1054 19.2929 32.2929C19.1054 32.4804 19 32.7348 19 33V34.5C19 34.7652 19.1054 35.0196 19.2929 35.2071C19.4804 35.3946 19.7348 35.5 20 35.5H22C22.2652 35.5 22.5196 35.3946 22.7071 35.2071C22.8946 35.0196 23 34.7652 23 34.5V33ZM20 34.5V33H22V34.5H20Z" fill="white"/>
<path d="M28 36.5H26C25.7348 36.5 25.4804 36.6054 25.2929 36.7929C25.1054 36.9804 25 37.2348 25 37.5V39C25 39.2652 25.1054 39.5196 25.2929 39.7071C25.4804 39.8946 25.7348 40 26 40H28C28.2652 40 28.5196 39.8946 28.7071 39.7071C28.8946 39.5196 29 39.2652 29 39V37.5C29 37.2348 28.8946 36.9804 28.7071 36.7929C28.5196 36.6054 28.2652 36.5 28 36.5ZM26 39V37.5H28V39H26Z" fill="white"/>
<path d="M32 31H34C34.2652 31 34.5196 30.8946 34.7071 30.7071C34.8946 30.5196 35 30.2652 35 30V28.5C35 28.2348 34.8946 27.9804 34.7071 27.7929C34.5196 27.6054 34.2652 27.5 34 27.5H32C31.7348 27.5 31.4804 27.6054 31.2929 27.7929C31.1054 27.9804 31 28.2348 31 28.5V30C31 30.2652 31.1054 30.5196 31.2929 30.7071C31.4804 30.8946 31.7348 31 32 31ZM32 28.5H34V30H32V28.5Z" fill="white"/>
<path d="M31 34.5C31 34.7652 31.1054 35.0196 31.2929 35.2071C31.4804 35.3946 31.7348 35.5 32 35.5C32.1326 35.5 32.2598 35.4473 32.3536 35.3536C32.4473 35.2598 32.5 35.1326 32.5 35C32.5 34.8674 32.4473 34.7402 32.3536 34.6464C32.2598 34.5527 32.1326 34.5 32 34.5V33H34C34.1326 33 34.2598 32.9473 34.3536 32.8536C34.4473 32.7598 34.5 32.6326 34.5 32.5C34.5 32.3674 34.4473 32.2402 34.3536 32.1464C34.2598 32.0527 34.1326 32 34 32H32C31.7348 32 31.4804 32.1054 31.2929 32.2929C31.1054 32.4804 31 32.7348 31 33V34.5Z" fill="white"/>
<path d="M22 36.5H20C19.7348 36.5 19.4804 36.6054 19.2929 36.7929C19.1054 36.9804 19 37.2348 19 37.5V39C19 39.2652 19.1054 39.5196 19.2929 39.7071C19.4804 39.8946 19.7348 40 20 40H22C22.2652 40 22.5196 39.8946 22.7071 39.7071C22.8946 39.5196 23 39.2652 23 39V37.5C23 37.2348 22.8946 36.9804 22.7071 36.7929C22.5196 36.6054 22.2652 36.5 22 36.5ZM20 39V37.5H22V39H20Z" fill="white"/>
<path d="M38.5 32C37.2144 32 35.9577 32.3812 34.8888 33.0954C33.8199 33.8097 32.9868 34.8248 32.4948 36.0126C32.0028 37.2003 31.8741 38.5072 32.1249 39.7681C32.3757 41.029 32.9948 42.1872 33.9038 43.0962C34.8129 44.0052 35.971 44.6243 37.2319 44.8751C38.4928 45.1259 39.7997 44.9972 40.9874 44.5052C42.1752 44.0132 43.1903 43.1801 43.9046 42.1112C44.6188 41.0423 45 39.7856 45 38.5C44.998 36.7767 44.3126 35.1246 43.094 33.906C41.8754 32.6874 40.2233 32.002 38.5 32ZM38.5 44C37.4122 44 36.3488 43.6774 35.4444 43.0731C34.5399 42.4687 33.8349 41.6098 33.4187 40.6048C33.0024 39.5998 32.8935 38.4939 33.1057 37.427C33.3179 36.3601 33.8417 35.3801 34.6109 34.6109C35.3801 33.8417 36.3601 33.3179 37.427 33.1057C38.4939 32.8935 39.5998 33.0024 40.6048 33.4187C41.6098 33.8349 42.4687 34.5399 43.0731 35.4444C43.6774 36.3488 44 37.4122 44 38.5C43.9983 39.9582 43.4183 41.3561 42.3872 42.3872C41.3561 43.4183 39.9582 43.9983 38.5 44Z" fill="white"/>
<path d="M41.389 36.404L37.5 40.293L35.7325 38.525C35.6382 38.4339 35.5119 38.3836 35.3808 38.3847C35.2497 38.3858 35.1243 38.4384 35.0316 38.5311C34.9389 38.6238 34.8863 38.7492 34.8852 38.8803C34.884 39.0114 34.9344 39.1377 35.0255 39.232L37.1465 41.3535C37.2403 41.4473 37.3674 41.4999 37.5 41.4999C37.6326 41.4999 37.7597 41.4473 37.8535 41.3535L42.096 37.111C42.1871 37.0167 42.2375 36.8904 42.2363 36.7593C42.2352 36.6282 42.1826 36.5028 42.0899 36.4101C41.9972 36.3174 41.8718 36.2648 41.7407 36.2637C41.6096 36.2626 41.4833 36.3129 41.389 36.404Z" fill="white"/>
</svg>
