<svg width="285" height="285" viewBox="0 0 285 285" fill="none" xmlns="http://www.w3.org/2000/svg">
<g opacity="0.8">
<path opacity="0.5" d="M142.5 260.476C207.657 260.476 260.477 207.657 260.477 142.5C260.477 77.3435 207.657 24.5237 142.5 24.5237C77.3436 24.5237 24.5238 77.3435 24.5238 142.5C24.5238 207.657 77.3436 260.476 142.5 260.476Z" fill="#EEAA2B"/>
<path d="M142.432 0V3.41317C140.725 3.41317 139.036 3.44731 137.346 3.4985L137.227 0.0853293C138.967 0.0341317 140.691 0 142.432 0ZM147.637 0.0853293C149.378 0.153593 151.101 0.238922 152.825 0.358383L152.586 3.75449C150.896 3.63503 149.207 3.5497 147.517 3.48144L147.637 0.0853293ZM132.039 0.375449L132.295 3.77156C130.605 3.89102 128.916 4.04461 127.243 4.23234L126.851 0.853293C128.574 0.665569 130.298 0.511976 132.039 0.375449ZM158.013 0.836228C159.737 1.02395 161.46 1.24581 163.184 1.48473L162.689 4.86377C161.016 4.62485 159.344 4.40299 157.654 4.23234L158.013 0.836228ZM121.697 1.5018L122.192 4.88084C120.502 5.11976 118.847 5.40988 117.174 5.7L116.56 2.35509C118.266 2.0479 119.973 1.75778 121.697 1.5018ZM168.321 2.33802C170.027 2.64521 171.734 2.98653 173.423 3.36198L172.69 6.68982C171.034 6.33144 169.379 5.99012 167.706 5.68293L168.321 2.33802ZM111.457 3.39611L112.208 6.72395C110.553 7.0994 108.897 7.49192 107.276 7.91856L106.423 4.60778C108.078 4.18114 109.768 3.77156 111.457 3.39611ZM178.475 4.57365C180.164 5.01737 181.82 5.47814 183.492 5.97305L182.519 9.2497C180.898 8.75479 179.277 8.31108 177.622 7.88443L178.475 4.57365ZM101.388 6.02425L102.378 9.3009C100.757 9.79581 99.1356 10.3078 97.5485 10.8539L96.4392 7.62844C98.0775 7.0482 99.7329 6.51916 101.388 6.02425ZM188.441 7.57725C190.097 8.14042 191.735 8.72066 193.356 9.3521L192.145 12.5434C190.557 11.929 188.97 11.3659 187.349 10.8198L188.441 7.57725ZM91.5413 9.38623L92.7701 12.5775C91.1829 13.1919 89.6299 13.8234 88.077 14.4719L86.7458 11.3317C88.3159 10.6491 89.9201 10.0006 91.5413 9.38623ZM198.203 11.2976C199.807 11.9802 201.394 12.697 202.964 13.4308L201.514 16.5198C199.978 15.803 198.425 15.1033 196.872 14.4377L198.203 11.2976ZM81.9844 13.4479L83.435 16.5368C81.8991 17.2536 80.3802 18.0045 78.8784 18.7725L77.3084 15.7347C78.8784 14.9497 80.4314 14.1817 81.9844 13.4479ZM207.64 15.7177C209.193 16.5198 210.712 17.3389 212.231 18.1922L210.559 21.1617C209.074 20.3254 207.589 19.5234 206.07 18.7554L207.64 15.7177ZM72.7689 18.2093L74.4413 21.1787C72.9736 22.015 71.506 22.8683 70.0725 23.7386L68.2976 20.8204C69.7482 19.9329 71.25 19.0455 72.7689 18.2093ZM216.719 20.8374C218.204 21.7419 219.672 22.6805 221.122 23.6362L219.228 26.4862C217.812 25.5476 216.378 24.6431 214.945 23.7557L216.719 20.8374ZM63.8946 23.6192L65.7889 26.4692C64.3725 27.4078 62.9901 28.3635 61.6078 29.3533L59.6281 26.5716C61.0275 25.5647 62.444 24.5749 63.8946 23.6192ZM225.406 26.5886C226.822 27.5955 228.205 28.6365 229.587 29.6946L227.505 32.391C226.157 31.35 224.809 30.3431 223.426 29.3533L225.406 26.5886ZM55.447 29.6775L57.529 32.374C56.1808 33.415 54.8668 34.4731 53.5698 35.5482L51.3853 32.9201C52.7165 31.8278 54.0647 30.7356 55.447 29.6775ZM233.649 32.9542C234.98 34.0635 236.294 35.2069 237.591 36.3674L235.304 38.9102C234.041 37.7838 232.761 36.6746 231.464 35.5823L233.649 32.9542ZM47.4602 36.3332L49.7299 38.876C48.4671 40.0024 47.2213 41.1629 46.0096 42.3404L43.6374 39.8829C44.8832 38.6713 46.1632 37.4937 47.4602 36.3332ZM241.397 39.9C242.643 41.1117 243.871 42.3234 245.083 43.5692L242.625 45.9413C241.448 44.7296 240.253 43.518 239.025 42.3404L241.397 39.9ZM39.9512 43.5521L42.4087 45.9243C41.2311 47.1359 40.0707 48.3817 38.9443 49.6446L36.4015 47.3578C37.579 46.0608 38.7566 44.7979 39.9512 43.5521ZM248.616 47.3919C249.776 48.6889 250.902 49.9859 252.012 51.3171L249.384 53.5015C248.291 52.2045 247.182 50.9246 246.056 49.6617L248.616 47.3919ZM33.0054 51.3L35.6335 53.4844C34.5413 54.7814 33.4832 56.1126 32.4422 57.4437L29.7458 55.3617C30.8039 53.9793 31.8961 52.6311 33.0054 51.3ZM255.271 55.3787C256.329 56.744 257.37 58.1434 258.377 59.5428L255.596 61.5395C254.606 60.1572 253.599 58.809 252.558 57.4608L255.271 55.3787ZM26.6398 59.5257L29.4216 61.5225C28.4317 62.9048 27.476 64.3042 26.5374 65.7036L23.6874 63.8093C24.6431 62.3757 25.6159 60.9422 26.6398 59.5257ZM261.33 63.8264C262.285 65.2599 263.224 66.7275 264.128 68.2123L261.21 69.9871C260.323 68.5365 259.418 67.1201 258.48 65.7036L261.33 63.8264ZM20.8716 68.2123L23.7898 69.9871C22.9024 71.4377 22.0491 72.8883 21.2129 74.3731L18.2434 72.7006C19.0967 71.1988 19.9671 69.697 20.8716 68.2123ZM266.757 72.6835C267.61 74.1853 268.429 75.7213 269.231 77.2572L266.193 78.8272C265.408 77.3254 264.623 75.8407 263.787 74.3731L266.757 72.6835ZM15.7689 77.2913L18.8066 78.8614C18.0216 80.3632 17.2877 81.8991 16.5539 83.435L13.465 81.9844C14.1988 80.3973 14.9668 78.8443 15.7689 77.2913ZM271.518 81.9162C272.252 83.4862 272.969 85.0563 273.634 86.6605L270.494 87.9916C269.828 86.4386 269.146 84.8856 268.429 83.3668L271.518 81.9162ZM11.3317 86.7287L14.4719 88.077C13.8063 89.6299 13.1749 91.2171 12.5605 92.8042L9.36916 91.5925C10.0006 89.9371 10.6491 88.3329 11.3317 86.7287ZM275.597 91.4731C276.211 93.0943 276.808 94.7156 277.372 96.371L274.146 97.4802C273.6 95.876 273.02 94.2889 272.422 92.7018L275.597 91.4731ZM7.59431 96.4734L10.8198 97.5826C10.2737 99.1868 9.74461 100.808 9.26677 102.429L5.99012 101.457C6.5021 99.7841 7.03114 98.1287 7.59431 96.4734ZM278.959 101.32C279.454 102.975 279.931 104.648 280.375 106.337L277.064 107.208C276.638 105.569 276.177 103.931 275.682 102.31L278.959 101.32ZM4.59072 106.457L7.9015 107.31C7.47485 108.949 7.08234 110.587 6.70689 112.242L3.37904 111.508C3.75449 109.819 4.16407 108.129 4.59072 106.457ZM281.587 111.389C281.962 113.078 282.304 114.785 282.628 116.492L279.266 117.123C278.959 115.451 278.617 113.795 278.259 112.14L281.587 111.389ZM2.35509 116.628L5.71707 117.243C5.39281 118.898 5.11976 120.57 4.88084 122.243L1.5018 121.748C1.75778 120.041 2.03084 118.318 2.35509 116.628ZM283.481 121.611C283.737 123.318 283.959 125.042 284.147 126.782L280.751 127.158C280.563 125.468 280.341 123.796 280.102 122.123L283.481 121.611ZM0.836228 126.919L4.23234 127.294C4.04461 128.967 3.89102 130.656 3.77156 132.346L0.375449 132.107C0.49491 130.366 0.648503 128.643 0.836228 126.919ZM284.625 131.953C284.744 133.677 284.846 135.418 284.915 137.158L281.501 137.278C281.433 135.571 281.348 133.882 281.228 132.209L284.625 131.953ZM0.102395 137.295L3.51557 137.414C3.44731 139.104 3.41317 140.793 3.41317 142.5V142.79H0V142.466C0 140.759 0.0341317 139.019 0.102395 137.295ZM285 142.363V142.5C285 144.19 284.966 145.879 284.915 147.551L281.501 147.432C281.553 145.794 281.587 144.138 281.587 142.5L285 142.363ZM3.51557 147.876C3.58383 149.582 3.66916 151.272 3.80569 152.944L0.409581 153.2C0.273054 151.477 0.187725 149.736 0.119461 148.012L3.51557 147.876ZM281.228 152.518L284.625 152.757C284.505 154.497 284.352 156.221 284.164 157.945L280.768 157.586C280.955 155.897 281.109 154.207 281.228 152.518ZM4.26647 157.996C4.45419 159.685 4.67605 161.358 4.91497 163.03L1.53593 163.525C1.27994 161.819 1.05808 160.095 0.870359 158.371L4.26647 157.996ZM280.153 162.621L283.532 163.116C283.276 164.839 283.003 166.546 282.696 168.252L279.334 167.638C279.624 165.966 279.897 164.293 280.153 162.621ZM5.7512 168.048C6.05838 169.72 6.3997 171.375 6.77515 173.031L3.44731 173.782C3.07186 172.092 2.73054 170.386 2.40629 168.679L5.7512 168.048ZM278.327 172.604L281.655 173.338C281.28 175.045 280.87 176.717 280.443 178.407L277.133 177.553C277.559 175.915 277.952 174.26 278.327 172.604ZM7.96976 177.963C8.39641 179.601 8.85719 181.24 9.3521 182.861L6.09251 183.851C5.5976 182.195 5.11976 180.523 4.67605 178.85L7.96976 177.963ZM275.767 182.434L279.044 183.407C278.549 185.079 278.02 186.735 277.457 188.373L274.231 187.281C274.778 185.677 275.29 184.055 275.767 182.434ZM10.9222 187.673C11.4683 189.278 12.0485 190.865 12.6629 192.452L9.47156 193.681C8.85719 192.059 8.25988 190.438 7.69671 188.783L10.9222 187.673ZM272.491 192.059L275.682 193.271C275.068 194.892 274.419 196.513 273.737 198.118L270.596 196.787C271.262 195.234 271.893 193.646 272.491 192.059ZM14.5572 197.145C15.2228 198.698 15.9054 200.234 16.6392 201.77L13.5503 203.22C12.8165 201.65 12.0997 200.08 11.4171 198.493L14.5572 197.145ZM268.514 201.428L271.603 202.879C270.869 204.449 270.102 206.019 269.299 207.555L266.262 206.002C267.047 204.5 267.798 202.981 268.514 201.428ZM18.8749 206.309C19.6599 207.811 20.462 209.296 21.2811 210.763L18.3117 212.436C17.4584 210.934 16.6392 209.415 15.8371 207.862L18.8749 206.309ZM263.872 210.49L266.842 212.163C265.989 213.682 265.118 215.184 264.214 216.651L261.296 214.876C262.183 213.426 263.036 211.958 263.872 210.49ZM23.8581 215.132C24.7455 216.583 25.65 217.999 26.5886 219.416L23.7386 221.31C22.7829 219.877 21.8443 218.409 20.9398 216.924L23.8581 215.132ZM258.565 219.16L261.415 221.037C260.459 222.488 259.469 223.921 258.463 225.321L255.681 223.341C256.671 221.976 257.626 220.576 258.565 219.16ZM29.4898 223.58C30.4796 224.962 31.4865 226.31 32.5275 227.642L29.8311 229.724C28.7731 228.358 27.732 226.959 26.7251 225.56L29.4898 223.58ZM252.66 227.437L255.357 229.519C254.299 230.901 253.206 232.249 252.097 233.581L249.469 231.396C250.561 230.099 251.619 228.768 252.66 227.437ZM35.7018 231.601C36.794 232.898 37.9033 234.178 39.0296 235.441L36.4868 237.728C35.3263 236.431 34.2 235.134 33.0737 233.802L35.7018 231.601ZM246.158 235.253L248.701 237.523C247.54 238.82 246.363 240.083 245.151 241.346L242.694 238.973C243.871 237.745 245.032 236.516 246.158 235.253ZM42.494 239.161C43.6716 240.373 44.8662 241.584 46.0949 242.745L43.7228 245.202C42.4769 244.008 41.2482 242.779 40.0365 241.533L42.494 239.161ZM239.11 242.557L241.482 245.015C240.236 246.226 238.973 247.404 237.676 248.564L235.39 246.022C236.652 244.895 237.881 243.735 239.11 242.557ZM49.8153 246.209C51.0781 247.336 52.3581 248.445 53.6551 249.537L51.4707 252.165C50.1395 251.056 48.8255 249.93 47.5284 248.769L49.8153 246.209ZM231.55 249.349L233.734 251.978C232.403 253.087 231.055 254.179 229.672 255.237L227.59 252.541C228.939 251.5 230.253 250.425 231.55 249.349ZM57.6314 252.694C58.9796 253.735 60.3278 254.742 61.7102 255.732L59.7305 258.514C58.3141 257.507 56.9147 256.466 55.5494 255.408L57.6314 252.694ZM223.529 255.561L225.525 258.343C224.126 259.35 222.693 260.34 221.242 261.296L219.348 258.446C220.764 257.507 222.146 256.551 223.529 255.561ZM65.8913 258.616C67.3078 259.555 68.7413 260.459 70.1919 261.347L68.4171 264.265C66.9323 263.361 65.4647 262.422 64.0141 261.466L65.8913 258.616ZM215.081 261.176L216.856 264.094C215.371 264.999 213.887 265.869 212.368 266.722L210.695 263.753C212.18 262.917 213.631 262.063 215.081 261.176ZM74.5778 263.907C76.0626 264.743 77.5473 265.545 79.0662 266.313L77.5132 269.351C75.9602 268.549 74.4242 267.729 72.9225 266.876L74.5778 263.907ZM206.241 266.159L207.811 269.197C206.275 269.982 204.722 270.75 203.152 271.501L201.702 268.412C203.22 267.678 204.739 266.927 206.241 266.159ZM83.6398 268.548C85.1757 269.265 86.7287 269.965 88.2988 270.613L86.9677 273.754C85.3635 273.071 83.7763 272.371 82.2063 271.637L83.6398 268.548ZM197.077 270.477L198.425 273.617C196.838 274.3 195.234 274.948 193.612 275.563L192.384 272.371C193.971 271.774 195.524 271.125 197.077 270.477ZM93.009 272.525C94.5961 273.122 96.1832 273.702 97.8045 274.249L96.7123 277.474C95.0569 276.911 93.4186 276.331 91.7973 275.699L93.009 272.525ZM187.605 274.112L188.714 277.337C187.076 277.901 185.421 278.43 183.765 278.942L182.775 275.665C184.397 275.17 186.018 274.658 187.605 274.112ZM102.634 275.784C104.255 276.262 105.894 276.723 107.532 277.15L106.679 280.46C104.989 280.034 103.317 279.556 101.661 279.061L102.634 275.784ZM177.895 277.047L178.765 280.358C177.093 280.802 175.403 281.211 173.713 281.587L172.963 278.259C174.618 277.866 176.256 277.474 177.895 277.047ZM112.481 278.344C114.137 278.703 115.792 279.044 117.464 279.351L116.85 282.713C115.143 282.406 113.437 282.065 111.747 281.689L112.481 278.344ZM167.979 279.266L168.611 282.628C166.904 282.935 165.198 283.225 163.474 283.481L162.979 280.102C164.652 279.846 166.324 279.573 167.979 279.266ZM122.465 280.153C124.137 280.392 125.81 280.597 127.499 280.785L127.141 284.181C125.417 283.993 123.693 283.771 121.97 283.532L122.465 280.153ZM157.928 280.734L158.303 284.13C156.579 284.317 154.856 284.471 153.115 284.607L152.859 281.211C154.566 281.075 156.255 280.921 157.928 280.734ZM132.568 281.246C134.257 281.365 135.947 281.45 137.636 281.519L137.517 284.932C135.776 284.881 134.035 284.778 132.329 284.659L132.568 281.246ZM147.807 281.484L147.927 284.898C146.203 284.966 144.463 285 142.722 285V281.587C144.428 281.587 146.118 281.553 147.807 281.484Z" fill="#EEAA2B"/>
</g>
</svg>
